<svg width="26" height="26" viewBox="0 0 26 26" fill="none" xmlns="http://www.w3.org/2000/svg">
<path d="M8 12H10.2V14.3333H8V12ZM8 16.6667H10.2V19H8V16.6667ZM12.4 12H14.6V14.3333H12.4V12ZM12.4 16.6667H14.6V19H12.4V16.6667ZM16.8 12H19V14.3333H16.8V12ZM16.8 16.6667H19V19H16.8V16.6667Z" fill="black"/>
<path d="M5.22222 24H20.7778C22.0033 24 23 23.0133 23 21.8V6.4C23 5.1867 22.0033 4.2 20.7778 4.2H18.5556V2H16.3333V4.2H9.66667V2H7.44444V4.2H5.22222C3.99667 4.2 3 5.1867 3 6.4V21.8C3 23.0133 3.99667 24 5.22222 24ZM20.7778 8.6L20.7789 21.8H5.22222V8.6H20.7778Z" fill="black"/>
</svg>
