<svg width="18" height="15" viewBox="0 0 18 15" fill="none" xmlns="http://www.w3.org/2000/svg">
<path d="M5.50073 14.1055C5.97534 14.1055 6.45874 13.9824 6.95092 13.7363C7.46069 13.4727 7.88256 13.1035 8.21655 12.6289C8.55053 12.1367 8.71752 11.5566 8.71752 10.8887C8.71752 10.4492 8.59448 9.9043 8.34838 9.25391C7.99682 9.28906 7.73315 9.30664 7.55737 9.30664C6.66088 9.30664 5.9226 9.02539 5.34252 8.46289C4.76245 7.90039 4.47241 7.24121 4.47241 6.48535C4.47241 5.55371 4.85913 4.66602 5.63256 3.82227C6.42358 2.96094 7.62768 2.31934 9.24487 1.89746L8.69116 0.104492C5.63256 0.913086 3.55834 2.1084 2.4685 3.69043C1.39624 5.27246 0.860103 6.91602 0.860103 8.62109C0.860103 9.85156 1.1062 10.8799 1.59838 11.7061C2.09057 12.5322 2.68823 13.1387 3.39135 13.5254C4.11206 13.9121 4.81518 14.1055 5.50073 14.1055ZM13.78 14.1055C14.2546 14.1055 14.738 13.9824 15.2302 13.7363C15.74 13.4727 16.1619 13.1035 16.4958 12.6289C16.8298 12.1367 16.9968 11.5566 16.9968 10.8887C16.9968 10.4492 16.8738 9.9043 16.6277 9.25391C16.2761 9.28906 16.0212 9.30664 15.863 9.30664C14.9665 9.30664 14.2283 9.03418 13.6482 8.48926C13.0857 7.92676 12.8044 7.25879 12.8044 6.48535C12.8044 5.55371 13.1912 4.66602 13.9646 3.82227C14.7556 2.96094 15.9597 2.31934 17.5769 1.89746L16.9968 0.104492C13.9382 0.913086 11.864 2.1084 10.7742 3.69043C9.7019 5.27246 9.16577 6.91602 9.16577 8.62109C9.16577 9.85156 9.40307 10.8799 9.87768 11.7061C10.3699 12.5322 10.9675 13.1387 11.6706 13.5254C12.3914 13.9121 13.0945 14.1055 13.78 14.1055Z" fill="black"/>
</svg>
