<svg width="49" height="48" viewBox="0 0 49 48" fill="none" xmlns="http://www.w3.org/2000/svg">
<path d="M24.0896 21.8182C24.0556 21.7722 24.1392 21.8438 24.0896 21.8182C24.04 21.7926 24.1448 21.8182 24.0896 21.8182C24.1392 21.7926 24.0344 21.8182 24.0896 21.8182C24.1236 21.7722 24.04 21.8438 24.0896 21.8182L18.6351 28.3636C18.5931 28.4204 18.6422 29.3829 18.6351 29.4545C18.6279 29.5262 18.6052 29.3898 18.6351 29.4545C18.6649 29.5193 18.5773 29.4164 18.6351 29.4545C18.6928 29.4927 18.567 29.4547 18.6351 29.4545H21.9078V41.4545C21.9078 41.6663 22.7987 41.4545 22.9987 41.4545H25.1805C25.3805 41.4545 26.2714 41.6663 26.2714 41.4545V29.4545H29.5441C29.8487 29.4545 29.7305 28.6139 29.5441 28.3636L24.0896 21.8182Z" fill="black"/>
<path d="M39.3623 17.4545C37.1875 11.744 31.6715 7.63635 25.1805 7.63635C18.6895 7.63635 12.0825 11.744 9.90776 17.4545C5.8384 18.5182 3.3623 21.7949 3.3623 26.1818C3.3623 31.4054 7.93828 36 13.1805 36H14.2714C14.4803 36 15.3623 36.208 15.3623 36V32.7273C15.3623 32.5193 14.4803 32.7273 14.2714 32.7273H13.1805C11.5803 32.7273 9.93747 31.6942 8.81685 30.5454C7.70098 29.4014 6.5828 27.7796 6.63503 26.1818C6.67777 24.9338 6.95196 23.8971 7.72594 22.9091C8.51892 21.9022 9.76409 21.0534 10.9987 20.7273H13.1805L14.2714 18.5454C14.6798 17.4676 14.6453 16.1851 15.3623 15.2727C16.0702 14.3684 16.6023 13.7506 17.5441 13.0909C19.4957 11.7247 22.7826 10.9091 25.1805 10.9091C27.5784 10.9091 29.7744 11.7247 31.7259 13.0909C32.6709 13.7527 33.2002 14.3698 33.9078 15.2727C34.6248 16.1851 34.5903 17.4724 34.9987 18.5454L36.0896 20.7273H38.2714C40.845 21.4174 42.635 23.5251 42.635 26.1818C42.635 27.7465 41.5643 29.4393 40.4532 30.5454C39.9083 31.0911 38.9854 31.3418 38.2714 31.6364C37.5574 31.9309 36.8624 32.7293 36.0896 32.7273H34.9987C34.7897 32.7273 33.9078 32.5193 33.9078 32.7273V36C33.9078 36.208 34.7897 36 34.9987 36H36.0896C41.3318 36 45.9078 31.4054 45.9078 26.1818C45.9078 21.7996 43.4222 18.5229 39.3623 17.4545Z" fill="black"/>
</svg>
