<svg width="682" height="459" viewBox="0 0 682 459" fill="none" xmlns="http://www.w3.org/2000/svg">
<path opacity="0.1" d="M104.82 640.913C111.998 601.976 89.9853 561.821 52.9017 544.41C-4.06953 517.661 -17.9581 442.348 26.4526 402.935C55.312 377.294 60.4207 333.456 39.1873 298C6.58962 243.868 39.0633 177.664 99.9223 173.39C139.698 170.541 169.571 140.039 172.413 100.31C176.749 39.5303 242.542 7.74158 296.821 40.3476C332.26 61.5573 376.898 56.1962 402.618 27.2307C442.243 -17.0881 516.914 -3.35861 543.68 53.4644C561.175 90.6606 600.802 113.055 639.68 105.932C699.343 95.0105 754.433 149.479 743.518 208.993C736.34 247.93 758.352 288.085 795.436 305.496C852.407 332.245 866.296 407.559 821.885 446.971C792.876 472.771 787.917 516.609 809.151 551.906C841.748 606.038 809.275 672.242 748.415 676.516C708.64 679.365 678.766 709.867 675.925 749.596C671.589 810.376 604.817 842.165 550.537 809.559C515.098 788.349 471.439 793.71 445.72 822.676C406.094 866.994 331.424 853.265 304.658 796.442C287.163 759.246 247.536 736.852 208.658 743.974C148.995 755.054 93.9046 700.585 104.82 640.913Z" fill="#A7AAF1"/>
</svg>
