<svg width="698" height="849" viewBox="0 0 698 849" fill="none" xmlns="http://www.w3.org/2000/svg">
<path opacity="0.1" d="M-46.1797 640.913C-39.0022 601.976 -61.0147 561.821 -98.0983 544.41C-155.07 517.661 -168.958 442.348 -124.547 402.935C-95.688 377.294 -90.5793 333.456 -111.813 298C-144.41 243.868 -111.937 177.664 -51.0777 173.39C-11.3025 170.541 18.5714 140.039 21.4125 100.31C25.7489 39.5303 91.5417 7.74158 145.821 40.3476C181.26 61.5573 225.898 56.1962 251.618 27.2307C291.243 -17.0881 365.914 -3.35861 392.68 53.4644C410.175 90.6606 449.802 113.055 488.68 105.932C548.343 95.0105 603.433 149.479 592.518 208.993C585.34 247.93 607.352 288.085 644.436 305.496C701.407 332.245 715.296 407.559 670.885 446.971C641.876 472.771 636.917 516.609 658.151 551.906C690.748 606.038 658.275 672.242 597.415 676.516C557.64 679.365 527.766 709.867 524.925 749.596C520.589 810.376 453.817 842.165 399.537 809.559C364.098 788.349 320.439 793.71 294.72 822.676C255.094 866.994 180.424 853.265 153.658 796.442C136.163 759.246 96.5356 736.852 57.6576 743.974C-2.00519 755.054 -57.0954 700.585 -46.1797 640.913Z" fill="#A7AAF1"/>
</svg>
