<svg width="758" height="793" viewBox="0 0 758 793" fill="none" xmlns="http://www.w3.org/2000/svg">
<path opacity="0.1" d="M104.489 584.754C111.657 545.803 90.0026 505.428 52.9665 488.011C-3.9318 461.252 -18.2684 386.36 26.0854 346.934C54.9079 321.284 60.4334 277.583 39.2272 242.116C6.67127 187.966 38.7792 121.94 99.5603 117.665C139.285 114.815 169.75 84.4146 172.587 44.6725C176.918 -16.1282 242.926 -48.2702 297.136 -15.6532C332.53 5.5637 376.286 0.0219803 401.972 -28.9534C441.547 -73.2872 516.366 -59.037 543.098 -2.19472C560.571 35.014 600.892 56.5476 639.721 49.4226C699.307 38.4974 754.413 93.5981 743.511 153.132C736.343 192.083 757.997 232.458 795.033 249.875C851.932 276.633 866.268 351.526 821.915 390.951C792.943 416.76 787.417 460.461 808.623 495.769C841.179 549.92 809.071 615.946 748.29 620.221C708.566 623.071 678.101 653.471 675.263 693.213C670.932 754.014 604.925 786.156 550.714 753.539C515.321 732.322 471.565 737.864 445.878 766.839C406.303 811.173 331.484 796.923 304.753 740.08C287.28 702.872 246.958 681.338 208.13 688.463C148.544 699.547 93.5868 644.446 104.489 584.754Z" fill="#A7AAF1"/>
</svg>
