<svg width="186" height="169" viewBox="0 0 186 169" fill="none" xmlns="http://www.w3.org/2000/svg">
<path d="M81 140H4C3.02269 139.999 1.69106 139.693 1 139C0.308938 138.307 0.00109989 136.979 0 136V31C0.00109989 30.0206 0.308937 28.6926 1 28C1.69106 27.3074 3.02269 27.0011 4 27H81C81.9773 27.0011 83.3089 27.3074 84 28C84.6911 28.6926 84.9989 30.0206 85 31V136C84.9989 136.979 84.6911 138.307 84 139C83.3089 139.693 81.9773 139.999 81 140Z" fill="white"/>
<path d="M38.9999 54.0002C38.9999 57.0444 37.7804 60.5367 35.9999 63.0002C34.2195 65.4638 31.8817 67.057 28.9999 68.0002C28.9137 68.0278 29.0874 67.974 28.9999 68.0002C28.6266 68.1156 28.385 68.9163 27.9999 69.0002C27.3031 69.1521 25.7116 68.9557 24.9999 69.0002C24.6906 69.0212 25.3128 69.0002 24.9999 69.0002C23.3835 69.0019 21.5257 68.5364 19.9999 68.0002C19.9556 67.9845 20.043 68.016 19.9999 68.0002C17.5278 67.1035 14.6495 66.0554 12.9999 64.0002C11.3503 61.9451 10.3479 58.6168 9.99992 56.0002C9.65193 53.3837 9.94517 51.4182 10.9999 49.0002C12.0547 46.5823 13.8488 44.5172 15.9999 43.0002C18.151 41.4833 21.3773 40.1755 23.9999 40.0002C26.6225 39.825 28.6677 40.7829 30.9999 42.0002C33.3321 43.2175 35.6355 44.744 36.9999 47.0002C38.3643 49.2565 38.9997 52.3604 38.9999 55.0002V54.0002Z" fill="white"/>
<path d="M24 64C27.866 64 31 60.866 31 57C31 53.134 27.866 50 24 50C20.134 50 17 53.134 17 57C17 60.866 20.134 64 24 64Z" fill="#6C63FF"/>
<path d="M25 60C24.4868 59.9885 24.34 60.1997 24 60C23.9036 59.9402 23.0567 59.0867 23 59C22.9433 58.9133 23.0067 59.0978 23 59C22.994 58.9403 22.9724 59.0557 23 59C23.0276 58.9443 22.9446 59.0401 23 59C23.1285 58.9374 23.8498 59.0011 24 59C24.1502 58.9989 23.8702 58.9392 24 59H25L24 56V58C23.8476 57.9545 24.1609 57.9814 24 58C23.8391 58.0186 23.1303 57.9218 23 58C22.9124 58.0615 23.0445 58.9136 23 59C22.9555 59.0864 22.9921 58.9067 23 59C23.0081 59.1314 22.9238 58.8836 23 59C23.0763 59.1164 22.8698 59.9204 23 60C23.4369 60.2567 24.5438 59.9897 25 60Z" fill="#2F2E41"/>
<path d="M25.9999 66.9998C26.0182 66.9115 26.9994 66.09 26.9999 65.9998C26.9994 65.6617 26.229 65.2388 25.9999 64.9998C25.7709 64.7607 25.3239 65.0003 24.9999 64.9998H22.9999C22.6759 65.0001 23.229 64.7607 22.9999 64.9998C22.7708 65.2389 22.0002 65.6616 21.9999 65.9998C21.9999 66.0905 21.9811 66.9112 21.9999 66.9998C21.3201 67.2233 20.5825 67.5712 19.9999 67.9998C19.8867 68.0816 20.1067 67.9071 19.9999 67.9998C20.0424 68.0159 19.9562 67.9836 19.9999 67.9998C21.5035 68.5487 23.407 69.0014 24.9999 68.9998C25.3086 68.9998 25.6955 69.0212 25.9999 68.9998C26.7013 68.9542 27.3132 69.1553 27.9999 68.9998C28.3794 68.9138 28.6321 68.1179 28.9999 67.9998C28.2721 67.3278 26.926 67.3068 25.9999 66.9998Z" fill="#2F2E41"/>
<path d="M25.9999 67.9998C25.8473 68.0124 26.1261 67.903 25.9999 67.9998C26.641 67.9552 27.3722 68.1523 27.9999 67.9998H25.9999Z" fill="#2F2E41"/>
<path d="M30.9999 55L17.9999 50C17.8726 49.9545 18.057 50.1202 17.9999 50C17.9429 49.8798 17.9534 50.1245 17.9999 50C18.9279 47.52 22.4634 45.0928 24.9999 46L28.9999 48C31.5365 48.9073 32.9279 51.52 31.9999 54V55C31.9534 55.1245 31.1229 54.9442 30.9999 55C31.1273 55.0456 30.877 55.0558 30.9999 55Z" fill="#2F2E41"/>
<path d="M31 55C13.6269 55.6094 12.7065 53.2633 18 50L19 48L31 53V55Z" fill="#2F2E41"/>
<path d="M27.9146 47.5778C27.9782 47.3654 27.7727 46.4904 27.244 46.3308C26.7153 46.1712 26.0635 46.7874 25.9999 46.9998C25.9364 47.2122 26.4285 47.1292 26.9573 47.2888C27.486 47.4484 27.851 47.7902 27.9146 47.5778Z" fill="#2F2E41"/>
<path d="M25.0001 68.9998C23.3533 69.0016 21.5544 68.5554 20.0001 67.9998C16.7442 66.7982 13.7242 64.0657 12.0001 60.9998C10.276 57.9339 9.37556 54.4773 10.0001 50.9998C10.6246 47.5223 12.3228 44.2413 15.0001 41.9998C17.6773 39.7583 21.5386 38.9433 25.0001 38.9998C28.4615 39.0563 32.3944 40.672 35.0001 42.9998C37.6057 45.3276 39.4848 48.5037 40.0001 51.9998C40.5154 55.4959 39.8193 58.9918 38.0001 61.9998C36.1809 65.0078 33.2919 66.9051 30.0001 67.9998C29.9081 68.0297 29.0881 67.9729 29.0001 67.9998C28.6324 68.1153 28.3986 68.9116 28.0001 68.9998C27.2897 69.1571 26.7255 68.9536 26.0001 68.9998C25.6884 69.0214 25.3176 68.9998 25.0001 68.9998ZM25.0001 39.9998C21.7408 40.0003 18.4954 40.8585 16.0001 42.9998C13.5047 45.1411 11.5622 48.7211 11.0001 51.9998C10.4379 55.2785 11.3656 58.12 13.0001 60.9998C14.6345 63.8796 16.9348 65.8684 20.0001 66.9998C21.4716 67.5257 23.4411 68.0016 25.0001 67.9998C25.3002 67.9998 25.7034 68.0203 26.0001 67.9998C26.687 67.9561 27.3274 68.1487 28.0001 67.9998C28.377 67.9163 28.6502 68.1097 29.0001 67.9998C29.0867 67.9733 28.9178 68.0265 29.0001 67.9998C32.1353 66.9569 35.2786 63.8719 37.0001 60.9998C38.7215 58.1277 39.5168 55.3256 39.0001 51.9998C38.4833 48.674 36.5075 45.1866 34.0001 42.9998C31.4926 40.813 28.2974 40.0003 25.0001 39.9998Z" fill="#816D6D"/>
<mask id="path-11-inside-1" fill="white">
<path d="M81 140H4C3.02269 139.999 1.69106 139.693 1 139C0.308938 138.307 0.00109989 136.979 0 136V31C0.00109989 30.0206 0.308937 28.6926 1 28C1.69106 27.3074 3.02269 27.0011 4 27H81C81.9773 27.0011 83.3089 27.3074 84 28C84.6911 28.6926 84.9989 30.0206 85 31V136C84.9989 136.979 84.6911 138.307 84 139C83.3089 139.693 81.9773 139.999 81 140ZM4 27C3.13767 27.001 1.60976 27.3889 1 28C0.39024 28.6111 0.000977826 30.1358 0 31V136C0.000977121 136.864 0.39024 138.389 1 139C1.60976 139.611 3.13767 139.999 4 140H81C81.8623 139.999 83.3902 139.611 84 139C84.6098 138.389 84.999 136.864 85 136V31C84.999 30.1358 84.6098 28.6111 84 28C83.3902 27.3889 81.8623 27.001 81 27H4Z"/>
</mask>
<path d="M81 140H4C3.02269 139.999 1.69106 139.693 1 139C0.308938 138.307 0.00109989 136.979 0 136V31C0.00109989 30.0206 0.308937 28.6926 1 28C1.69106 27.3074 3.02269 27.0011 4 27H81C81.9773 27.0011 83.3089 27.3074 84 28C84.6911 28.6926 84.9989 30.0206 85 31V136C84.9989 136.979 84.6911 138.307 84 139C83.3089 139.693 81.9773 139.999 81 140ZM4 27C3.13767 27.001 1.60976 27.3889 1 28C0.39024 28.6111 0.000977826 30.1358 0 31V136C0.000977121 136.864 0.39024 138.389 1 139C1.60976 139.611 3.13767 139.999 4 140H81C81.8623 139.999 83.3902 139.611 84 139C84.6098 138.389 84.999 136.864 85 136V31C84.999 30.1358 84.6098 28.6111 84 28C83.3902 27.3889 81.8623 27.001 81 27H4Z" fill="#816D6D"/>
<path d="M4 140L3.99752 142.196H4V140ZM0 136H-2.1962L-2.1962 136.002L0 136ZM0 31L-2.1962 30.9975V31H0ZM4 27V24.8038L3.99752 24.8038L4 27ZM81 27L81.0025 24.8038H81V27ZM85 31H87.1962V30.9975L85 31ZM85 136L87.1962 136.002V136H85ZM4 27V24.8038L3.9975 24.8038L4 27ZM0 31L-2.1962 30.9975V31H0ZM0 136H-2.1962L-2.1962 136.002L0 136ZM4 140L3.9975 142.196H4V140ZM81 140V142.196H81.0025L81 140ZM85 136L87.1962 136.002V136H85ZM85 31H87.1962V30.9975L85 31ZM81 27L81.0025 24.8038H81V27ZM81 137.804H4V142.196H81V137.804ZM4.00248 137.804C3.71985 137.803 3.35589 137.756 3.02678 137.657C2.67024 137.549 2.54567 137.44 2.55463 137.449L-0.55463 140.551C0.145392 141.253 1.03217 141.643 1.75854 141.862C2.51234 142.089 3.30284 142.195 3.99752 142.196L4.00248 137.804ZM2.55463 137.449C2.5608 137.455 2.451 137.328 2.34357 136.972C2.24424 136.644 2.19651 136.28 2.1962 135.998L-2.1962 136.002C-2.19541 136.699 -2.08867 137.49 -1.86105 138.243C-1.64151 138.969 -1.25186 139.853 -0.55463 140.551L2.55463 137.449ZM2.1962 136V31H-2.1962V136H2.1962ZM2.1962 31.0025C2.19651 30.7197 2.24424 30.3564 2.34357 30.0277C2.451 29.6722 2.5608 29.5451 2.55463 29.5513L-0.55463 26.4487C-1.25186 27.1475 -1.64151 28.0306 -1.86105 28.7571C-2.08867 29.5104 -2.19541 30.3009 -2.1962 30.9975L2.1962 31.0025ZM2.55463 29.5513C2.54567 29.5602 2.67024 29.4509 3.02678 29.3434C3.35589 29.2441 3.71985 29.1965 4.00248 29.1962L3.99752 24.8038C3.30284 24.8046 2.51233 24.9107 1.75854 25.138C1.03217 25.3571 0.145392 25.7472 -0.55463 26.4487L2.55463 29.5513ZM4 29.1962H81V24.8038H4V29.1962ZM80.9975 29.1962C81.2802 29.1965 81.6441 29.2441 81.9732 29.3434C82.3298 29.4509 82.4543 29.5602 82.4454 29.5513L85.5546 26.4487C84.8546 25.7472 83.9678 25.3571 83.2415 25.138C82.4877 24.9107 81.6972 24.8046 81.0025 24.8038L80.9975 29.1962ZM82.4454 29.5513C82.4392 29.5451 82.549 29.6722 82.6564 30.0277C82.7558 30.3564 82.8035 30.7197 82.8038 31.0025L87.1962 30.9975C87.1954 30.3009 87.0887 29.5104 86.861 28.7571C86.6415 28.0306 86.2519 27.1475 85.5546 26.4487L82.4454 29.5513ZM82.8038 31V136H87.1962V31H82.8038ZM82.8038 135.998C82.8035 136.28 82.7558 136.644 82.6564 136.972C82.549 137.328 82.4392 137.455 82.4454 137.449L85.5546 140.551C86.2519 139.853 86.6415 138.969 86.861 138.243C87.0887 137.49 87.1954 136.699 87.1962 136.002L82.8038 135.998ZM82.4454 137.449C82.4543 137.44 82.3298 137.549 81.9732 137.657C81.6441 137.756 81.2802 137.803 80.9975 137.804L81.0025 142.196C81.6972 142.195 82.4877 142.089 83.2415 141.862C83.9678 141.643 84.8546 141.253 85.5546 140.551L82.4454 137.449ZM3.9975 24.8038C3.30099 24.8046 2.48385 24.9501 1.76165 25.1714C1.09937 25.3745 0.139716 25.7529 -0.55463 26.4487L2.55463 29.5513C2.48354 29.6225 2.47169 29.6086 2.59392 29.5469C2.70175 29.4925 2.85659 29.4299 3.04892 29.371C3.4587 29.2454 3.83668 29.1964 4.0025 29.1962L3.9975 24.8038ZM-0.55463 26.4487C-1.24624 27.1419 -1.62424 28.0976 -1.82776 28.7605C-2.04933 29.4821 -2.19541 30.2993 -2.1962 30.9975L2.1962 31.0025C2.19638 30.8365 2.24543 30.4592 2.37117 30.0497C2.43018 29.8575 2.49287 29.7024 2.54752 29.5941C2.60935 29.4715 2.62404 29.4817 2.55463 29.5513L-0.55463 26.4487ZM-2.1962 31V136H2.1962V31H-2.1962ZM-2.1962 136.002C-2.19541 136.701 -2.04933 137.518 -1.82776 138.24C-1.62424 138.902 -1.24624 139.858 -0.55463 140.551L2.55463 137.449C2.62404 137.518 2.60935 137.528 2.54752 137.406C2.49287 137.298 2.43018 137.142 2.37117 136.95C2.24543 136.541 2.19638 136.164 2.1962 135.998L-2.1962 136.002ZM-0.55463 140.551C0.139715 141.247 1.09937 141.626 1.76165 141.829C2.48385 142.05 3.30099 142.195 3.9975 142.196L4.0025 137.804C3.83668 137.804 3.4587 137.755 3.04892 137.629C2.85659 137.57 2.70175 137.507 2.59392 137.453C2.47169 137.391 2.48355 137.378 2.55463 137.449L-0.55463 140.551ZM4 142.196H81V137.804H4V142.196ZM81.0025 142.196C81.699 142.195 82.5162 142.05 83.2383 141.829C83.9006 141.626 84.8603 141.247 85.5546 140.551L82.4454 137.449C82.5165 137.378 82.5283 137.391 82.4061 137.453C82.2982 137.507 82.1434 137.57 81.9511 137.629C81.5413 137.755 81.1633 137.804 80.9975 137.804L81.0025 142.196ZM85.5546 140.551C86.2462 139.858 86.6242 138.902 86.8278 138.24C87.0493 137.518 87.1954 136.701 87.1962 136.002L82.8038 135.998C82.8036 136.164 82.7546 136.541 82.6288 136.95C82.5698 137.142 82.5071 137.298 82.4525 137.406C82.3906 137.528 82.376 137.518 82.4454 137.449L85.5546 140.551ZM87.1962 136V31H82.8038V136H87.1962ZM87.1962 30.9975C87.1954 30.2993 87.0493 29.4821 86.8278 28.7605C86.6242 28.0976 86.2462 27.1419 85.5546 26.4487L82.4454 29.5513C82.376 29.4817 82.3906 29.4715 82.4525 29.5941C82.5071 29.7024 82.5698 29.8575 82.6288 30.0497C82.7546 30.4592 82.8036 30.8365 82.8038 31.0025L87.1962 30.9975ZM85.5546 26.4487C84.8603 25.7529 83.9006 25.3745 83.2383 25.1714C82.5162 24.9501 81.699 24.8046 81.0025 24.8038L80.9975 29.1962C81.1633 29.1964 81.5413 29.2454 81.9511 29.371C82.1434 29.4299 82.2982 29.4925 82.4061 29.5469C82.5283 29.6086 82.5165 29.6225 82.4454 29.5513L85.5546 26.4487ZM81 24.8038H4V29.1962H81V24.8038Z" fill="black" mask="url(#path-11-inside-1)"/>
<path d="M66 54.0001H45C44.5539 53.9997 43.3152 54.2412 43 54.0001C42.6847 53.759 43 53.3409 43 53.0001C43 52.6594 42.6847 51.2412 43 51.0001C43.3152 50.759 44.5539 51.0006 45 51.0001H66C66.2212 50.9999 66.7955 50.9356 67 51.0001C67.2044 51.0647 66.8434 50.8807 67 51.0001C67.1565 51.1196 67.9152 51.844 68 52.0001C68.0847 52.1562 68 52.8311 68 53.0001C68 53.1691 68.0847 52.844 68 53.0001C67.9152 53.1562 67.1565 53.8807 67 54.0001C66.8434 54.1196 67.2044 53.9356 67 54.0001C66.7955 54.0647 66.2212 54.0003 66 54.0001Z" fill="#9D9D9D"/>
<path d="M74 59.0001H45C44.5339 58.9997 44.3294 59.2412 44 59.0001C43.6706 58.759 43 58.3409 43 58.0001C43 57.6594 43.6706 56.2412 44 56.0001C44.3294 55.759 44.5339 56.0006 45 56.0001H74C74.4661 56.0006 74.6706 55.759 75 56.0001C75.3294 56.2412 76 57.6594 76 58.0001C76 58.3409 75.3294 58.759 75 59.0001C74.6706 59.2412 74.4661 58.9997 74 59.0001Z" fill="#9D9D9D"/>
<path d="M65.9999 82.0001H11.9999C11.7725 82.0003 11.21 82.0647 10.9999 82.0001C10.7897 81.9356 11.1607 82.1196 10.9999 82.0001C10.839 81.8807 10.087 81.1562 9.99988 81.0001C9.91281 80.844 9.99988 81.1691 9.99988 81.0001C9.99988 80.8311 9.91281 80.1562 9.99988 80.0001C10.087 79.844 10.839 79.1196 10.9999 79.0001C11.1607 78.8807 10.7897 79.0647 10.9999 79.0001C11.21 78.9356 11.7725 78.9999 11.9999 79.0001H65.9999C66.4583 79.0006 66.6759 78.759 66.9999 79.0001C67.3238 79.2412 67.9999 80.6594 67.9999 81.0001C67.9999 81.3409 67.3238 81.759 66.9999 82.0001C66.6759 82.2412 66.4583 81.9997 65.9999 82.0001Z" fill="#9D9D9D"/>
<path d="M73 87.9999H12C11.7734 88.0001 11.2094 88.0706 11 87.9999C10.7906 87.9292 11.1603 88.1308 11 87.9999C10.8397 87.869 10.0868 87.171 10 86.9999C9.91321 86.8288 10 86.1851 10 85.9999C10 85.8147 9.91321 86.171 10 85.9999C10.0868 85.8288 10.8397 85.1308 11 84.9999C11.1603 84.869 10.7906 85.0706 11 84.9999C11.2094 84.9292 11.7734 84.9997 12 84.9999H73C73.2266 84.9997 73.7906 84.9292 74 84.9999C74.2094 85.0706 73.8397 84.869 74 84.9999C74.1603 85.1308 74.9132 85.8288 75 85.9999C75.0868 86.171 75 85.8147 75 85.9999C75 86.1851 75.0868 86.8288 75 86.9999C74.9132 87.171 74.1603 87.869 74 87.9999C73.8397 88.1308 74.2094 87.9292 74 87.9999C73.7906 88.0706 73.2266 88.0001 73 87.9999Z" fill="#9D9D9D"/>
<path d="M66 101H12C11.5406 101 11.3249 101.241 11 101C10.6751 100.759 10 99.3412 10 99.0002C10 98.6592 10.6751 98.2413 11 98.0002C11.3249 97.7591 11.5406 98.0002 12 98.0002H66C66.4594 98.0002 66.6751 97.7591 67 98.0002C67.3249 98.2413 68 98.6592 68 99.0002C68 99.3412 67.3249 100.759 67 101C66.6751 101.241 66.4594 101 66 101Z" fill="#9D9D9D"/>
<path d="M73 107H12C11.5416 107 11.3241 107.241 11 107C10.6759 106.759 10 105.341 10 105C10 104.659 10.6759 104.241 11 104C11.3241 103.759 11.5416 104 12 104H73C73.4584 104 73.6759 103.759 74 104C74.3241 104.241 75 104.659 75 105C75 105.341 74.3241 106.759 74 107C73.6759 107.241 73.4584 107 73 107Z" fill="#9D9D9D"/>
<path d="M66 121H12C11.5406 121 11.3249 121.241 11 121C10.6751 120.759 10 120.341 10 120C10 119.659 10.6751 118.241 11 118C11.3249 117.759 11.5406 118 12 118H66C66.4594 118 66.6751 117.759 67 118C67.3249 118.241 68 119.659 68 120C68 120.341 67.3249 120.759 67 121C66.6751 121.241 66.4594 121 66 121Z" fill="#9D9D9D"/>
<path d="M73 127H12C11.5416 127 11.3241 127.241 11 127C10.6759 126.759 10 126.341 10 126C10 125.659 10.6759 124.241 11 124C11.3241 123.759 11.5416 124 12 124H73C73.4584 124 73.6759 123.759 74 124C74.3241 124.241 75 125.659 75 126C75 126.341 74.3241 126.759 74 127C73.6759 127.241 73.4584 127 73 127Z" fill="#9D9D9D"/>
<path d="M182 113H105C104.023 112.999 102.691 112.693 102 112C101.309 111.307 101.001 109.979 101 109V4C101.001 3.02057 101.309 1.69256 102 1C102.691 0.307436 104.023 0.00110299 105 0H182C182.977 0.00110157 184.309 0.307437 185 1C185.691 1.69256 185.999 3.02057 186 4V109C185.999 109.979 185.691 111.307 185 112C184.309 112.693 182.977 112.999 182 113Z" fill="white"/>
<mask id="path-22-inside-2" fill="white">
<path d="M182 113H105C104.023 112.999 102.691 112.693 102 112C101.309 111.307 101.001 109.979 101 109V4C101.001 3.02057 101.309 1.69256 102 1C102.691 0.307436 104.023 0.00110299 105 0H182C182.977 0.00110157 184.309 0.307437 185 1C185.691 1.69256 185.999 3.02057 186 4V109C185.999 109.979 185.691 111.307 185 112C184.309 112.693 182.977 112.999 182 113ZM105 0C104.138 0.000979952 102.61 0.388915 102 1C101.39 1.61108 101.001 3.1358 101 4V109C101.001 109.864 101.39 111.389 102 112C102.61 112.611 104.138 112.999 105 113H182C182.862 112.999 184.39 112.611 185 112C185.61 111.389 185.999 109.864 186 109V4C185.999 3.1358 185.61 1.61108 185 1C184.39 0.388916 182.862 0.000978537 182 0H105Z"/>
</mask>
<path d="M182 113H105C104.023 112.999 102.691 112.693 102 112C101.309 111.307 101.001 109.979 101 109V4C101.001 3.02057 101.309 1.69256 102 1C102.691 0.307436 104.023 0.00110299 105 0H182C182.977 0.00110157 184.309 0.307437 185 1C185.691 1.69256 185.999 3.02057 186 4V109C185.999 109.979 185.691 111.307 185 112C184.309 112.693 182.977 112.999 182 113ZM105 0C104.138 0.000979952 102.61 0.388915 102 1C101.39 1.61108 101.001 3.1358 101 4V109C101.001 109.864 101.39 111.389 102 112C102.61 112.611 104.138 112.999 105 113H182C182.862 112.999 184.39 112.611 185 112C185.61 111.389 185.999 109.864 186 109V4C185.999 3.1358 185.61 1.61108 185 1C184.39 0.388916 182.862 0.000978537 182 0H105Z" fill="#816D6D"/>
<path d="M105 113L104.998 115.196H105V113ZM101 109H98.8038L98.8038 109.002L101 109ZM101 4L98.8038 3.99754V4H101ZM105 0V-2.1962L104.998 -2.1962L105 0ZM182 0L182.002 -2.1962H182V0ZM186 4H188.196V3.99753L186 4ZM186 109L188.196 109.002V109H186ZM105 0V-2.1962L104.998 -2.1962L105 0ZM101 4L98.8038 3.99752V4H101ZM101 109H98.8038L98.8038 109.002L101 109ZM105 113L104.998 115.196H105V113ZM182 113V115.196H182.002L182 113ZM186 109L188.196 109.002V109H186ZM186 4H188.196V3.99752L186 4ZM182 0L182.002 -2.1962H182V0ZM182 110.804H105V115.196H182V110.804ZM105.002 110.804C104.72 110.803 104.356 110.756 104.027 110.657C103.67 110.549 103.546 110.44 103.555 110.449L100.445 113.551C101.145 114.253 102.032 114.643 102.759 114.862C103.512 115.089 104.303 115.195 104.998 115.196L105.002 110.804ZM103.555 110.449C103.561 110.455 103.451 110.328 103.344 109.972C103.244 109.644 103.197 109.28 103.196 108.998L98.8038 109.002C98.8046 109.699 98.9113 110.49 99.139 111.243C99.3585 111.969 99.7481 112.853 100.445 113.551L103.555 110.449ZM103.196 109V4H98.8038V109H103.196ZM103.196 4.00246C103.197 3.71966 103.244 3.35644 103.344 3.0277C103.451 2.67221 103.561 2.54508 103.555 2.55126L100.445 -0.551259C99.7481 0.147485 99.3585 1.03064 99.139 1.75715C98.9113 2.51041 98.8046 3.30091 98.8038 3.99754L103.196 4.00246ZM103.555 2.55126C103.546 2.56024 103.67 2.45089 104.027 2.34336C104.356 2.24411 104.72 2.19651 105.002 2.1962L104.998 -2.1962C104.303 -2.19541 103.512 -2.08929 102.759 -1.86196C102.032 -1.6429 101.145 -1.2528 100.445 -0.551259L103.555 2.55126ZM105 2.1962H182V-2.1962H105V2.1962ZM181.998 2.1962C182.28 2.19651 182.644 2.24411 182.973 2.34336C183.33 2.45089 183.454 2.56024 183.445 2.55126L186.555 -0.551261C185.855 -1.2528 184.968 -1.6429 184.241 -1.86196C183.488 -2.08929 182.697 -2.19541 182.002 -2.1962L181.998 2.1962ZM183.445 2.55126C183.439 2.54508 183.549 2.6722 183.656 3.0277C183.756 3.35644 183.803 3.71966 183.804 4.00247L188.196 3.99753C188.195 3.30091 188.089 2.51041 187.861 1.75715C187.642 1.03064 187.252 0.147484 186.555 -0.551261L183.445 2.55126ZM183.804 4V109H188.196V4H183.804ZM183.804 108.998C183.803 109.28 183.756 109.644 183.656 109.972C183.549 110.328 183.439 110.455 183.445 110.449L186.555 113.551C187.252 112.853 187.642 111.969 187.861 111.243C188.089 110.49 188.195 109.699 188.196 109.002L183.804 108.998ZM183.445 110.449C183.454 110.44 183.33 110.549 182.973 110.657C182.644 110.756 182.28 110.803 181.998 110.804L182.002 115.196C182.697 115.195 183.488 115.089 184.241 114.862C184.968 114.643 185.855 114.253 186.555 113.551L183.445 110.449ZM104.998 -2.1962C104.301 -2.1954 103.484 -2.04993 102.762 -1.82855C102.099 -1.62555 101.14 -1.24711 100.445 -0.551259L103.555 2.55126C103.484 2.6225 103.472 2.60856 103.594 2.5469C103.702 2.4925 103.857 2.42993 104.049 2.37098C104.459 2.24537 104.837 2.19638 105.002 2.1962L104.998 -2.1962ZM100.445 -0.551259C99.7538 0.141854 99.3758 1.09763 99.1722 1.76046C98.9507 2.48211 98.8046 3.29933 98.8038 3.99752L103.196 4.00248C103.196 3.83647 103.245 3.45923 103.371 3.0497C103.43 2.85751 103.493 2.70244 103.548 2.59409C103.609 2.47151 103.624 2.4817 103.555 2.55126L100.445 -0.551259ZM98.8038 4V109H103.196V4H98.8038ZM98.8038 109.002C98.8046 109.701 98.9507 110.518 99.1722 111.24C99.3758 111.902 99.7538 112.858 100.445 113.551L103.555 110.449C103.624 110.518 103.609 110.528 103.548 110.406C103.493 110.298 103.43 110.142 103.371 109.95C103.245 109.541 103.196 109.164 103.196 108.998L98.8038 109.002ZM100.445 113.551C101.14 114.247 102.099 114.626 102.762 114.829C103.484 115.05 104.301 115.195 104.998 115.196L105.002 110.804C104.837 110.804 104.459 110.755 104.049 110.629C103.857 110.57 103.702 110.507 103.594 110.453C103.472 110.391 103.484 110.378 103.555 110.449L100.445 113.551ZM105 115.196H182V110.804H105V115.196ZM182.002 115.196C182.699 115.195 183.516 115.05 184.238 114.829C184.901 114.626 185.86 114.247 186.555 113.551L183.445 110.449C183.516 110.378 183.528 110.391 183.406 110.453C183.298 110.507 183.143 110.57 182.951 110.629C182.541 110.755 182.163 110.804 181.998 110.804L182.002 115.196ZM186.555 113.551C187.246 112.858 187.624 111.902 187.828 111.24C188.049 110.518 188.195 109.701 188.196 109.002L183.804 108.998C183.804 109.164 183.755 109.541 183.629 109.95C183.57 110.142 183.507 110.298 183.452 110.406C183.391 110.528 183.376 110.518 183.445 110.449L186.555 113.551ZM188.196 109V4H183.804V109H188.196ZM188.196 3.99752C188.195 3.29933 188.049 2.48211 187.828 1.76046C187.624 1.09763 187.246 0.141853 186.555 -0.551261L183.445 2.55126C183.376 2.4817 183.391 2.47151 183.452 2.59409C183.507 2.70244 183.57 2.85751 183.629 3.0497C183.755 3.45922 183.804 3.83647 183.804 4.00248L188.196 3.99752ZM186.555 -0.551261C185.86 -1.24711 184.901 -1.62555 184.238 -1.82855C183.516 -2.04993 182.699 -2.19541 182.002 -2.1962L181.998 2.1962C182.163 2.19638 182.541 2.24537 182.951 2.37097C183.143 2.42993 183.298 2.4925 183.406 2.5469C183.528 2.60856 183.516 2.6225 183.445 2.55126L186.555 -0.551261ZM182 -2.1962H105V2.1962H182V-2.1962Z" fill="black" mask="url(#path-22-inside-2)"/>
<path d="M140 27C140 29.8216 139.568 33.6539 138 36C136.432 38.3461 133.607 39.9202 131 41C128.393 42.0798 125.767 42.5505 123 42C120.233 41.4495 116.995 39.9952 115 38C113.005 36.0048 111.55 32.7674 111 30C110.449 27.2326 110.92 24.6068 112 22C113.08 19.3932 114.654 16.5676 117 15C119.346 13.4324 122.178 13 125 13C128.783 13.0012 133.325 14.3248 136 17C138.675 19.6752 139.999 23.2167 140 27Z" fill="white"/>
<path d="M132 29.9999C131.843 39.334 118.156 39.3328 118 29.9999C118.157 20.6661 131.844 20.6673 132 29.9999Z" fill="#6C63FF"/>
<path d="M125 33C126.792 33.2666 126.807 30.0747 125 31L126 28V31C127.903 30.6844 126.882 33.2896 125 33Z" fill="#2F2E41"/>
<path d="M128 40.0002C128.268 37.846 126.122 38.0215 125 38.0002C124.819 38.0009 124.163 37.9071 124 38.0002C123.837 38.0933 124.114 38.8327 124 39.0002C123.886 39.1677 123.042 38.7909 123 39.0002C122.958 39.2095 122.962 39.7897 123 40.0002C122.132 40.3196 121.69 40.2967 121 41.0002C123.909 42.2069 127.069 42.13 130 41.0002C129.286 40.237 128.918 40.3356 128 40.0002Z" fill="#2F2E41"/>
<path d="M122 26.9999C123.266 26.3167 124.693 26.7133 126 26.9999C128.48 27.7121 131.698 26.7598 132 23.9999C132.314 21.4332 128.201 19.4453 127 21.9999H128C124.104 16.5908 116.955 16.5634 117 23.9999C116.986 24.2296 116.986 24.229 117 23.9999C116.857 19.6177 120.611 17.1837 125 19.9999C125.98 20.7167 126.279 21.0524 127 21.9999C127.457 22.4784 127.812 20.4602 130 20.9999C132.408 21.8712 132.152 25.293 130 25.9999C127.341 27.2688 123.609 24.7567 121 25.9999C120.958 26.0247 121.012 25.9548 121 25.9999C120.988 26.045 120.975 26.9598 121 26.9999C121.025 27.04 120.952 26.9874 121 26.9999C121.048 27.0125 121.956 27.0219 122 26.9999Z" fill="#2F2E41"/>
<path d="M126 43C122.316 42.9968 118.703 41.5419 116 39C113.297 36.4581 111.287 32.7303 111 29C110.713 25.2696 111.718 21.9372 114 19C116.282 16.0627 120.361 13.5838 124 13C127.639 12.4161 130.938 13.9202 134 16C137.062 18.0797 140.141 21.3615 141 25C141.859 28.6385 140.8 31.7355 139 35C137.2 38.2645 134.503 40.8436 131 42C129.535 42.484 127.541 43.0017 126 43ZM126 14C123.255 13.9996 120.282 14.4512 118 16C115.717 17.5487 114.051 20.4242 113 23C111.949 25.5758 111.465 28.2654 112 31C112.535 33.7345 114.059 36.0285 116 38C117.941 39.9715 120.308 41.4561 123 42C125.692 42.5438 128.464 42.0671 131 41C133.536 39.9328 136.475 38.3184 138 36C139.525 33.6816 140 30.7881 140 28C139.996 24.2633 138.601 20.6422 136 18C133.399 15.3577 129.679 14.0042 126 14Z" fill="#816D6D"/>
<path d="M167 27.0002H146C145.547 27.0002 145.32 27.2413 145 27.0002C144.68 26.7591 144 26.3412 144 26.0002C144 25.6592 144.68 24.2413 145 24.0002C145.32 23.7591 145.547 24.0002 146 24.0002H167C167.453 24.0002 167.68 23.7591 168 24.0002C168.32 24.2413 169 24.6592 169 25.0002C169 25.3412 168.32 26.7591 168 27.0002C167.68 27.2413 167.453 27.0002 167 27.0002Z" fill="#9D9D9D"/>
<path d="M175 33.0002H146C145.769 33.0004 145.213 33.0647 145 33.0002C144.787 32.9357 145.163 33.1196 145 33.0002C144.837 32.8808 144.088 32.1563 144 32.0002C143.912 31.8441 144 32.1692 144 32.0002C144 31.8313 143.912 31.1563 144 31.0002C144.088 30.8441 144.837 30.1196 145 30.0002C145.163 29.8808 144.787 30.0647 145 30.0002C145.213 29.9357 145.769 30 146 30.0002H175C175.465 30.0002 175.671 29.7591 176 30.0002C176.329 30.2413 177 30.6592 177 31.0002C177 31.3412 176.329 32.7591 176 33.0002C175.671 33.2413 175.465 33.0002 175 33.0002Z" fill="#9D9D9D"/>
<path d="M167 55.0002H113C112.541 54.9998 112.324 55.2413 112 55.0002C111.676 54.7592 111 54.3409 111 54.0002C111 53.6595 111.676 52.2413 112 52.0002C112.324 51.7592 112.541 52.0006 113 52.0002H167C167.459 52.0002 167.675 51.7591 168 52.0002C168.325 52.2413 169 52.6592 169 53.0002C169 53.3412 168.325 54.7591 168 55.0002C167.675 55.2413 167.459 55.0002 167 55.0002Z" fill="#9D9D9D"/>
<path d="M174 61.0002H113C112.773 61.0004 112.21 61.0647 112 61.0002C111.79 60.9357 112.161 61.1196 112 61.0002C111.84 60.8808 111.087 60.1563 111 60.0002C110.913 59.8441 111 60.1692 111 60.0002C111 59.8313 110.913 59.1563 111 59.0002C111.087 58.8441 111.84 58.1196 112 58.0002C112.161 57.8808 111.79 58.0647 112 58.0002C112.21 57.9357 112.773 58 113 58.0002H174C174.458 58.0002 174.676 57.7591 175 58.0002C175.324 58.2413 176 58.6592 176 59.0002C176 59.3412 175.324 60.7591 175 61.0002C174.676 61.2413 174.458 61.0002 174 61.0002Z" fill="#9D9D9D"/>
<path d="M167 75.0002H113C112.541 74.9998 112.324 75.2413 112 75.0002C111.676 74.7592 111 74.3409 111 74.0002C111 73.6595 111.676 72.2413 112 72.0002C112.324 71.7592 112.541 72.0006 113 72.0002H167C167.459 72.0002 167.675 71.7591 168 72.0002C168.325 72.2413 169 72.6592 169 73.0002C169 73.3412 168.325 74.7591 168 75.0002C167.675 75.2413 167.459 75.0002 167 75.0002Z" fill="#9D9D9D"/>
<path d="M174 81.0002H113C112.773 81.0004 112.21 81.0647 112 81.0002C111.79 80.9357 112.161 81.1196 112 81.0002C111.84 80.8808 111.087 80.1563 111 80.0002C110.913 79.8441 111 80.1692 111 80.0002C111 79.8313 110.913 79.1563 111 79.0002C111.087 78.8441 111.84 78.1196 112 78.0002C112.161 77.8808 111.79 78.0647 112 78.0002C112.21 77.9357 112.773 78 113 78.0002H174C174.458 78.0002 174.676 77.7591 175 78.0002C175.324 78.2413 176 78.6592 176 79.0002C176 79.3412 175.324 80.7591 175 81.0002C174.676 81.2413 174.458 81.0002 174 81.0002Z" fill="#9D9D9D"/>
<path d="M167 94.0002H113C112.541 94.0002 112.325 94.2413 112 94.0002C111.675 93.7591 111 93.3412 111 93.0002C111 92.6592 111.675 91.2413 112 91.0002C112.325 90.7591 112.541 91.0002 113 91.0002H167C167.459 91.0002 167.675 90.7591 168 91.0002C168.325 91.2413 169 91.6592 169 92.0002C169 92.3412 168.325 93.7591 168 94.0002C167.675 94.2413 167.459 94.0002 167 94.0002Z" fill="#9D9D9D"/>
<path d="M174 100H113C112.542 100 112.324 100.241 112 100C111.676 99.7591 111 99.3412 111 99.0002C111 98.6592 111.676 97.2413 112 97.0002C112.324 96.7591 112.542 97.0002 113 97.0002H174C174.458 97.0002 174.676 96.7591 175 97.0002C175.324 97.2413 176 97.6592 176 98.0002C176 98.3412 175.324 99.7591 175 100C174.676 100.241 174.458 100 174 100Z" fill="#9D9D9D"/>
<path d="M135 159H58C57.0227 158.999 55.6911 158.693 55 158C54.3089 157.307 54.0011 155.979 54 155V50C54.0011 49.0206 54.3089 47.6926 55 47C55.6911 46.3074 57.0227 46.0011 58 46H135C135.977 46.0011 137.309 46.3074 138 47C138.691 47.6926 138.999 49.0206 139 50V155C138.999 155.979 138.691 157.307 138 158C137.309 158.693 135.977 158.999 135 159Z" fill="white"/>
<path d="M64 71.9998C63.9975 73.9473 64.2754 76.2011 65 77.9998C65.7246 79.7985 66.6598 81.6266 68 82.9998C68.1123 83.1141 68.8839 82.8882 69 82.9998C69.6999 83.6735 70.1841 84.4829 71 84.9998C71.1566 85.0993 70.8395 84.907 71 84.9998C71.8251 85.479 73.0993 85.698 74 85.9998C74.1554 86.0523 73.8421 85.9541 74 85.9998C76.8632 86.8459 80.1875 87.0104 83 85.9998C83.0548 85.9796 82.9465 86.02 83 85.9998C85.4689 85.0743 88.3553 84.1108 90 81.9998C91.6447 79.8888 92.6568 76.6837 93 73.9998C93.3433 71.3159 93.0578 69.4778 92 66.9998C90.9422 64.5218 89.1519 62.5528 87 60.9998C84.8481 59.4468 81.6216 58.1771 79 57.9998C76.3784 57.8225 74.3305 58.75 72 59.9998C69.6695 61.2496 67.3632 62.6856 66 64.9998C64.6369 67.314 64.0002 69.2927 64 71.9998Z" fill="white"/>
<path d="M75.9999 80C76.0068 80.9857 75.7486 82.2688 74.9999 83C74.259 83.7179 73.1129 84.197 71.9999 84C70.975 83.8186 69.896 82.9569 69.9999 82C70.0171 81.7927 69.8854 81.1816 69.9999 81C70.1143 80.8184 70.8095 81.1221 70.9999 81C71.1903 80.8778 70.7689 81.04 70.9999 81C71.2308 80.9599 71.7713 80.9504 71.9999 81C72.9735 81.2231 73.8112 82.4184 72.9999 83C72.8052 83.1395 71.8034 82.1408 71.9999 82C72.121 81.9021 72.9466 82.1371 72.9999 82C73.0532 81.8628 73.0274 82.1429 72.9999 82C72.9723 81.857 72.1015 81.1138 71.9999 81C71.8982 80.8861 72.1509 81.0569 71.9999 81C71.8217 80.9496 71.185 80.9764 70.9999 81C70.8147 81.0235 71.1547 80.9072 70.9999 81C70.8451 81.0927 71.093 81.8567 70.9999 82C70.9067 82.1432 70.0126 81.8352 69.9999 82C69.9356 82.8067 71.1416 83.8569 71.9999 84C72.9283 84.1547 73.3708 83.5791 73.9999 83C74.7209 82.3274 76.0087 80.926 75.9999 80C75.9632 80.0313 76.0016 79.9549 75.9999 80C75.9489 80 76.0365 79.9687 75.9999 80C75.9632 79.9687 76.0509 80 75.9999 80C75.9982 79.9549 76.0365 80.0313 75.9999 80Z" fill="#2F2E41"/>
<path d="M80 82C83.866 82 87 78.866 87 75C87 71.134 83.866 68 80 68C76.134 68 73 71.134 73 75C73 78.866 76.134 82 80 82Z" fill="#6C63FF"/>
<path d="M79 78C79.5132 77.9885 79.66 78.1997 80 78C80.0964 77.9402 80.9433 77.0867 81 77C81.0567 76.9133 80.9933 77.0978 81 77C81.006 76.9403 81.0276 77.0557 81 77C80.9724 76.9443 81.0554 77.0401 81 77C80.8715 76.9374 80.1502 77.0011 80 77C79.8498 76.9989 80.1298 76.9392 80 77H79L80 74V76C80.1524 75.9545 79.8391 75.9814 80 76C80.1609 76.0186 80.8697 75.9218 81 76C81.0876 76.0615 80.9555 76.9136 81 77C81.0445 77.0864 81.0079 76.9067 81 77C80.9919 77.1314 81.0763 76.8836 81 77C80.9237 77.1164 81.1302 77.9204 81 78C80.5631 78.2567 79.4562 77.9897 79 78Z" fill="#2F2E41"/>
<path d="M75 86.9999C77.8732 88.0047 81.1777 88.2001 84 86.9999C84.055 86.976 83.9463 87.0239 84 86.9999C83.3349 86.3744 82.8032 86.2996 82 85.9999C82.0568 85.7543 82.0585 85.2449 82 84.9999C81.9205 84.6893 81.216 84.191 81 83.9999C80.784 83.8088 81.2668 83.9958 81 83.9999H79C78.7336 83.9955 78.2155 83.8091 78 83.9999C77.7844 84.1908 78.079 84.6897 78 84.9999C77.9415 85.2455 77.9432 85.7538 78 85.9999C77.2925 86.2641 76.6047 86.48 76 86.9999C75.8781 87.1038 75.1139 86.8865 75 86.9999C75.0826 86.9105 74.9135 87.0846 75 86.9999Z" fill="#2F2E41"/>
<path d="M85 74C85 75.2163 85.2792 76.8247 86 77C86.0734 77.0178 85.9248 76.9999 86 77C86.8257 77 88 76.339 88 75C88.0186 74.3098 87.3918 73.546 87 73C86.8782 72.8408 87.1693 72.0963 87 72C86.8515 71.9164 86.1675 72.0005 86 72C85.7699 72.0031 86.185 71.8523 86 72C85.4916 72.3884 85 73.0305 85 74Z" fill="#040404"/>
<path d="M70.9999 74.0002C70.9999 75.0388 71.4253 76.6615 71.9999 77.0002C72.1572 77.0946 72.8196 76.9989 72.9999 77.0002C73.04 77.0001 72.9601 77.0055 72.9999 77.0002C73.7694 76.9024 73.9999 76.265 73.9999 75.0002C73.9999 73.9869 73.552 72.3549 72.9999 72.0002C72.8329 71.889 73.1965 72.002 72.9999 72.0002C72.8324 72.0006 72.1484 71.9171 71.9999 72.0002C71.8302 72.0961 72.1221 72.8417 71.9999 73.0002C71.6092 73.5421 70.9816 73.3156 70.9999 74.0002Z" fill="#040404"/>
<path d="M73 77C73.0295 77 72.9739 77.0145 73 77C73.0262 76.9855 72.9829 77.0258 73 77C72.9957 77.0314 73.0172 76.9742 73 77C73.0094 77.0301 73.0044 76.9686 73 77C72.6461 75.8623 71.8508 74.1894 72 73C72.1493 71.8106 73.3784 70.9946 74 70C74.6217 69.0054 75.0349 67.5938 76 67C76.9652 66.4062 78.8913 66.0699 80 66C81.1088 65.9301 81.9775 66.5315 83 67C84.0226 67.4684 85.2756 68.0902 86 69C86.7245 69.9097 86.7238 70.8374 87 72C87.2763 73.1625 87.2292 74.8256 87 76C86.99 76.0519 86.9732 75.9556 87 76C87.0269 76.0444 87.952 75.989 88 76C88.0481 76.0109 87.9589 76.0289 88 76C88.0412 75.9711 87.9898 76.0518 88 76C88.2411 74.7652 88.2904 73.2223 88 72C87.7097 70.7777 86.7617 69.9566 86 69C85.2384 68.0434 84.0751 67.4925 83 67C81.9249 66.5074 81.1658 65.9265 80 66C78.8343 66.0735 77.0148 66.3756 76 67C74.9853 67.6244 73.6536 68.9542 73 70C72.3465 71.0458 72.1569 71.7494 72 73C71.8432 74.2505 71.6277 75.8039 72 77C72.0124 77.0397 71.9686 76.9755 72 77C72.0315 77.0244 72.9613 77 73 77Z" fill="#040404"/>
<path d="M83.0001 71C83.1076 71.1467 83.0256 71.8293 83.0001 72C82.9746 72.1707 83.1475 71.8799 83.0001 72C82.6482 72.3284 81.4874 72.061 81.0001 72C80.4533 71.9316 80.5536 71.8558 80.0001 72C79.5283 72.123 78.4902 72.9102 78.0001 73C77.5654 73.0797 77.1525 72.3871 77.0001 72C76.9269 71.814 76.9272 71.815 77.0001 72C77.0987 72.2505 77.7563 73.0694 78.0001 73C78.3909 72.8889 78.6159 72.1292 79.0001 72C79.458 71.8816 80.5429 71.8795 81.0001 72C81.4347 72.0818 81.5671 72.1528 82.0001 72C82.3205 71.887 83.2305 71.2628 83.0001 71C82.8632 70.8439 82.8617 70.8423 83.0001 71Z" fill="#2F2E41"/>
<path d="M78.9999 87.9998C77.6109 88.0009 76.3348 87.3795 74.9999 86.9998C74.8431 86.9563 74.1655 87.0534 73.9999 86.9998C73.0698 86.7005 72.8522 86.4742 71.9999 85.9998C71.8401 85.9112 71.1696 86.1032 70.9999 85.9998C70.1574 85.4875 69.7229 84.6671 68.9999 83.9998C68.8807 83.8898 68.1155 84.1126 67.9999 83.9998C65.7263 81.7592 64.4578 78.1408 63.9999 74.9998C63.5421 71.8588 64.4588 68.7837 65.9999 65.9998C67.5411 63.2159 70.0767 60.3121 72.9999 58.9998C75.9232 57.6875 78.865 57.3151 81.9999 57.9998C85.1349 58.6845 87.9083 60.5922 89.9999 62.9998C92.0916 65.4074 93.789 68.8332 93.9999 71.9998C94.2109 75.1664 93.7541 78.3419 91.9999 80.9998C90.2458 83.6577 87.017 85.9147 83.9999 86.9998C83.9458 87.0194 84.056 86.98 83.9999 86.9998C82.4231 87.5456 80.6707 88.0015 78.9999 87.9998ZM78.9999 58.9998C76.2201 58.9999 73.3106 59.4723 70.9999 60.9998C68.6893 62.5273 67.0617 65.4604 65.9999 67.9998C64.9382 70.5392 64.4544 73.3055 64.9999 75.9998C65.5455 78.6941 67.0313 81.0599 68.9999 82.9998C69.1089 83.1062 68.8859 82.8946 68.9999 82.9998C69.6847 83.6318 71.202 84.5146 71.9999 84.9998C72.1607 85.0977 71.8491 84.9162 71.9999 84.9998C72.8072 85.4492 74.119 86.7164 74.9999 86.9998C75.1558 87.0503 74.8511 86.9585 74.9999 86.9998C77.8012 87.7943 81.2481 86.9482 83.9999 85.9998C87.1031 84.8833 89.3488 82.8266 90.9999 79.9998C92.6511 77.173 93.5732 74.2144 92.9999 70.9998C92.4267 67.7852 90.5295 64.0982 87.9999 61.9998C85.4704 59.9014 82.3023 59.0002 78.9999 58.9998Z" fill="#816D6D"/>
<mask id="path-49-inside-3" fill="white">
<path d="M135 159H58C57.0227 158.999 55.6911 158.693 55 158C54.3089 157.307 54.0011 155.979 54 155V50C54.0011 49.0206 54.3089 47.6926 55 47C55.6911 46.3074 57.0227 46.0011 58 46H135C135.977 46.0011 137.309 46.3074 138 47C138.691 47.6926 138.999 49.0206 139 50V155C138.999 155.979 138.691 157.307 138 158C137.309 158.693 135.977 158.999 135 159ZM58 46C57.1377 46.001 55.6098 46.3889 55 47C54.3902 47.6111 54.001 49.1358 54 50V155C54.001 155.864 54.3902 157.389 55 158C55.6098 158.611 57.1377 158.999 58 159H135C135.862 158.999 137.39 158.611 138 158C138.61 157.389 138.999 155.864 139 155V50C138.999 49.1358 138.61 47.6111 138 47C137.39 46.3889 135.862 46.001 135 46H58Z"/>
</mask>
<path d="M135 159H58C57.0227 158.999 55.6911 158.693 55 158C54.3089 157.307 54.0011 155.979 54 155V50C54.0011 49.0206 54.3089 47.6926 55 47C55.6911 46.3074 57.0227 46.0011 58 46H135C135.977 46.0011 137.309 46.3074 138 47C138.691 47.6926 138.999 49.0206 139 50V155C138.999 155.979 138.691 157.307 138 158C137.309 158.693 135.977 158.999 135 159ZM58 46C57.1377 46.001 55.6098 46.3889 55 47C54.3902 47.6111 54.001 49.1358 54 50V155C54.001 155.864 54.3902 157.389 55 158C55.6098 158.611 57.1377 158.999 58 159H135C135.862 158.999 137.39 158.611 138 158C138.61 157.389 138.999 155.864 139 155V50C138.999 49.1358 138.61 47.6111 138 47C137.39 46.3889 135.862 46.001 135 46H58Z" fill="#040404"/>
<path d="M58 159L57.9975 161.196H58V159ZM54 155H51.8038L51.8038 155.002L54 155ZM54 50L51.8038 49.9975V50H54ZM58 46V43.8038L57.9975 43.8038L58 46ZM135 46L135.002 43.8038H135V46ZM139 50H141.196V49.9975L139 50ZM139 155L141.196 155.002V155H139ZM58 46V43.8038L57.9975 43.8038L58 46ZM54 50L51.8038 49.9975V50H54ZM54 155H51.8038L51.8038 155.002L54 155ZM58 159L57.9975 161.196H58V159ZM135 159V161.196H135.002L135 159ZM139 155L141.196 155.002V155H139ZM139 50H141.196V49.9975L139 50ZM135 46L135.002 43.8038H135V46ZM135 156.804H58V161.196H135V156.804ZM58.0025 156.804C57.7198 156.803 57.3559 156.756 57.0268 156.657C56.6702 156.549 56.5457 156.44 56.5546 156.449L53.4454 159.551C54.1454 160.253 55.0322 160.643 55.7585 160.862C56.5123 161.089 57.3028 161.195 57.9975 161.196L58.0025 156.804ZM56.5546 156.449C56.5608 156.455 56.451 156.328 56.3436 155.972C56.2442 155.644 56.1965 155.28 56.1962 154.998L51.8038 155.002C51.8046 155.699 51.9113 156.49 52.139 157.243C52.3585 157.969 52.7481 158.853 53.4454 159.551L56.5546 156.449ZM56.1962 155V50H51.8038V155H56.1962ZM56.1962 50.0025C56.1965 49.7197 56.2442 49.3564 56.3436 49.0277C56.451 48.6722 56.5608 48.5451 56.5546 48.5513L53.4454 45.4487C52.7481 46.1475 52.3585 47.0306 52.139 47.7571C51.9113 48.5104 51.8046 49.3009 51.8038 49.9975L56.1962 50.0025ZM56.5546 48.5513C56.5457 48.5602 56.6702 48.4509 57.0268 48.3434C57.3559 48.2441 57.7198 48.1965 58.0025 48.1962L57.9975 43.8038C57.3028 43.8046 56.5123 43.9107 55.7585 44.138C55.0322 44.3571 54.1454 44.7472 53.4454 45.4487L56.5546 48.5513ZM58 48.1962H135V43.8038H58V48.1962ZM134.998 48.1962C135.28 48.1965 135.644 48.2441 135.973 48.3434C136.33 48.4509 136.454 48.5602 136.445 48.5513L139.555 45.4487C138.855 44.7472 137.968 44.3571 137.241 44.138C136.488 43.9107 135.697 43.8046 135.002 43.8038L134.998 48.1962ZM136.445 48.5513C136.439 48.5451 136.549 48.6722 136.656 49.0277C136.756 49.3564 136.803 49.7197 136.804 50.0025L141.196 49.9975C141.195 49.3009 141.089 48.5104 140.861 47.7571C140.642 47.0306 140.252 46.1475 139.555 45.4487L136.445 48.5513ZM136.804 50V155H141.196V50H136.804ZM136.804 154.998C136.803 155.28 136.756 155.644 136.656 155.972C136.549 156.328 136.439 156.455 136.445 156.449L139.555 159.551C140.252 158.853 140.642 157.969 140.861 157.243C141.089 156.49 141.195 155.699 141.196 155.002L136.804 154.998ZM136.445 156.449C136.454 156.44 136.33 156.549 135.973 156.657C135.644 156.756 135.28 156.803 134.998 156.804L135.002 161.196C135.697 161.195 136.488 161.089 137.241 160.862C137.968 160.643 138.855 160.253 139.555 159.551L136.445 156.449ZM57.9975 43.8038C57.301 43.8046 56.4838 43.9501 55.7616 44.1714C55.0994 44.3745 54.1397 44.7529 53.4454 45.4487L56.5546 48.5513C56.4835 48.6225 56.4717 48.6086 56.5939 48.5469C56.7018 48.4925 56.8566 48.4299 57.0489 48.371C57.4587 48.2454 57.8367 48.1964 58.0025 48.1962L57.9975 43.8038ZM53.4454 45.4487C52.7538 46.1419 52.3758 47.0976 52.1722 47.7605C51.9507 48.4821 51.8046 49.2993 51.8038 49.9975L56.1962 50.0025C56.1964 49.8365 56.2454 49.4592 56.3712 49.0497C56.4302 48.8575 56.4929 48.7024 56.5475 48.5941C56.6093 48.4715 56.624 48.4817 56.5546 48.5513L53.4454 45.4487ZM51.8038 50V155H56.1962V50H51.8038ZM51.8038 155.002C51.8046 155.701 51.9507 156.518 52.1722 157.24C52.3758 157.902 52.7538 158.858 53.4454 159.551L56.5546 156.449C56.624 156.518 56.6093 156.528 56.5475 156.406C56.4929 156.298 56.4302 156.142 56.3712 155.95C56.2454 155.541 56.1964 155.164 56.1962 154.998L51.8038 155.002ZM53.4454 159.551C54.1397 160.247 55.0994 160.626 55.7616 160.829C56.4838 161.05 57.301 161.195 57.9975 161.196L58.0025 156.804C57.8367 156.804 57.4587 156.755 57.0489 156.629C56.8566 156.57 56.7018 156.507 56.5939 156.453C56.4717 156.391 56.4835 156.378 56.5546 156.449L53.4454 159.551ZM58 161.196H135V156.804H58V161.196ZM135.002 161.196C135.699 161.195 136.516 161.05 137.238 160.829C137.901 160.626 138.86 160.247 139.555 159.551L136.445 156.449C136.516 156.378 136.528 156.391 136.406 156.453C136.298 156.507 136.143 156.57 135.951 156.629C135.541 156.755 135.163 156.804 134.998 156.804L135.002 161.196ZM139.555 159.551C140.246 158.858 140.624 157.902 140.828 157.24C141.049 156.518 141.195 155.701 141.196 155.002L136.804 154.998C136.804 155.164 136.755 155.541 136.629 155.95C136.57 156.142 136.507 156.298 136.452 156.406C136.391 156.528 136.376 156.518 136.445 156.449L139.555 159.551ZM141.196 155V50H136.804V155H141.196ZM141.196 49.9975C141.195 49.2993 141.049 48.4821 140.828 47.7605C140.624 47.0976 140.246 46.1419 139.555 45.4487L136.445 48.5513C136.376 48.4817 136.391 48.4715 136.452 48.5941C136.507 48.7024 136.57 48.8575 136.629 49.0497C136.755 49.4592 136.804 49.8365 136.804 50.0025L141.196 49.9975ZM139.555 45.4487C138.86 44.7529 137.901 44.3745 137.238 44.1714C136.516 43.9501 135.699 43.8046 135.002 43.8038L134.998 48.1962C135.163 48.1964 135.541 48.2454 135.951 48.371C136.143 48.4299 136.298 48.4925 136.406 48.5469C136.528 48.6086 136.516 48.6225 136.445 48.5513L139.555 45.4487ZM135 43.8038H58V48.1962H135V43.8038Z" fill="black" mask="url(#path-49-inside-3)"/>
<path d="M120 72.0002H99C98.5471 72.0002 98.3202 72.2413 98 72.0002C97.6798 71.7591 97 71.3412 97 71.0002C97 70.6592 97.6798 69.2413 98 69.0002C98.3202 68.7591 98.5471 69.0002 99 69.0002H120C120.453 69.0002 120.68 68.7591 121 69.0002C121.32 69.2413 122 70.6592 122 71.0002C122 71.3412 121.32 71.7591 121 72.0002C120.68 72.2413 120.453 72.0002 120 72.0002Z" fill="#6C63FF"/>
<path d="M128 78.0002H99C98.5336 78.0002 98.3298 78.2413 98 78.0002C97.6702 77.7591 97 77.3412 97 77.0002C97 76.6592 97.6702 75.2413 98 75.0002C98.3298 74.7591 98.5336 75.0002 99 75.0002H128C128.466 75.0002 128.67 74.7591 129 75.0002C129.33 75.2413 130 76.6592 130 77.0002C130 77.3412 129.33 77.7591 129 78.0002C128.67 78.2413 128.466 78.0002 128 78.0002Z" fill="#6C63FF"/>
<path d="M120 101H66C65.5406 101 65.3249 101.241 65 101C64.6751 100.759 64 100.341 64 100C64 99.6592 64.6751 98.2413 65 98.0002C65.3249 97.7591 65.5406 98.0002 66 98.0002H120C120.459 98.0002 120.675 97.7591 121 98.0002C121.325 98.2413 122 99.6592 122 100C122 100.341 121.325 100.759 121 101C120.675 101.241 120.459 101 120 101Z" fill="#816D6D"/>
<path d="M127 107H66C65.5416 107 65.3241 107.241 65 107C64.6759 106.759 64 105.341 64 105C64 104.659 64.6759 104.241 65 104C65.3241 103.759 65.5416 104 66 104H127C127.458 104 127.676 103.759 128 104C128.324 104.241 129 104.659 129 105C129 105.341 128.324 106.759 128 107C127.676 107.241 127.458 107 127 107Z" fill="#816D6D"/>
<path d="M120 120H66C65.5409 120 65.3244 120.241 65 120C64.6756 119.759 64 118.341 64 118C64 117.66 64.6756 117.241 65 117C65.3244 116.759 65.5409 117.001 66 117H120C120.459 117 120.675 116.759 121 117C121.325 117.241 122 117.659 122 118C122 118.341 121.325 119.759 121 120C120.675 120.241 120.459 120 120 120Z" fill="#816D6D"/>
<path d="M127 126H66C65.542 126 65.3237 126.241 65 126C64.6763 125.759 64 125.341 64 125C64 124.66 64.6763 123.241 65 123C65.3237 122.759 65.542 123.001 66 123H127C127.458 123 127.676 122.759 128 123C128.324 123.241 129 124.659 129 125C129 125.341 128.324 125.759 128 126C127.676 126.241 127.458 126 127 126Z" fill="#816D6D"/>
<path d="M120 140H66C65.5406 140 65.3249 140.241 65 140C64.6751 139.759 64 139.341 64 139C64 138.659 64.6751 137.241 65 137C65.3249 136.759 65.5406 137 66 137H120C120.459 137 120.675 136.759 121 137C121.325 137.241 122 138.659 122 139C122 139.341 121.325 139.759 121 140C120.675 140.241 120.459 140 120 140Z" fill="#816D6D"/>
<path d="M127 146H66C65.5416 146 65.3241 146.241 65 146C64.6759 145.759 64 145.341 64 145C64 144.659 64.6759 143.241 65 143C65.3241 142.759 65.5416 143 66 143H127C127.458 143 127.676 142.759 128 143C128.324 143.241 129 144.659 129 145C129 145.341 128.324 145.759 128 146C127.676 146.241 127.458 146 127 146Z" fill="#816D6D"/>
<path d="M133 159C132.575 159.001 131.34 159.26 131 159L127 155C126.586 154.675 126.068 154.529 126 154C125.932 153.471 125.682 152.423 126 152C126.318 151.577 127.482 151.07 128 151C128.518 150.93 128.585 151.676 129 152L132 154L139 145C139.157 144.79 139.776 144.132 140 144C140.224 143.868 140.743 144.034 141 144C141.257 143.965 140.75 143.932 141 144C141.25 144.068 141.795 143.839 142 144C142.414 144.325 142.932 145.471 143 146C143.068 146.529 143.318 146.576 143 147L134 158C133.815 158.245 134.272 158.864 134 159C133.728 159.136 133.303 159.001 133 159Z" fill="white"/>
</svg>
