<svg width="577" height="531" viewBox="0 0 577 531" fill="none" xmlns="http://www.w3.org/2000/svg">
<g filter="url(#filter0_d)">
<path d="M462.572 452.152C362.874 504.256 201.209 504.256 101.512 452.152C1.81378 400.047 1.80194 315.575 101.512 263.47C201.221 211.366 362.874 211.366 462.572 263.47C562.27 315.575 562.281 400.047 462.572 452.152Z" fill="#F8F8F8"/>
<path d="M362.752 354.27C365.134 341.724 373.851 323.843 384.486 313.875C394.715 304.299 409.899 300.961 415.949 305.381C421.999 309.8 418.033 319.352 406.291 330.995C393.036 344.123 367.587 380.55 362.752 401.186V354.27Z" fill="#0C3A4D"/>
<g opacity="0.2">
<path opacity="0.2" d="M362.752 354.27C365.134 341.724 373.851 323.843 384.486 313.875C394.715 304.299 409.899 300.961 415.949 305.381C421.999 309.8 418.033 319.352 406.291 330.995C393.036 344.123 367.587 380.55 362.752 401.186V354.27Z" fill="black"/>
</g>
<path d="M362.279 383.616C362.429 383.613 362.573 383.557 362.684 383.457C362.794 383.356 362.863 383.22 362.878 383.072C365.895 351.663 388.162 316.357 409.568 309C409.717 308.947 409.84 308.838 409.909 308.697C409.978 308.555 409.989 308.393 409.939 308.244C409.885 308.097 409.774 307.976 409.631 307.908C409.488 307.84 409.324 307.829 409.173 307.878C386.977 315.495 364.769 350.588 361.657 382.966C361.643 383.122 361.692 383.277 361.792 383.399C361.893 383.52 362.038 383.598 362.195 383.616H362.279Z" fill="#68BCC8"/>
<path d="M362.876 416.466C362.876 416.466 367.006 419.738 380.781 418.458C394.556 417.177 401.658 407.396 401.658 403.199C401.658 399.002 388.993 398.278 386.248 387.869C389.04 390.842 392.755 392.8 396.8 393.429C403.961 394.769 409.715 392.493 411.35 379.534C407.82 380.047 404.219 379.75 400.822 378.669C395.152 376.855 393.804 373.76 395.284 373.096C396.764 372.432 404.666 373.096 409.727 371.187C414.788 369.279 410.92 343.1 407.602 341.239C404.284 339.378 388.587 343.764 385.532 346.112C382.81 348.198 378.99 351.815 380.757 359.462C378.664 357.519 377.033 355.137 375.983 352.49C374.502 348.934 373.428 349.763 371.208 351.127C369.875 351.873 368.718 352.894 367.814 354.121C366.91 355.348 366.281 356.752 365.968 358.241C365.431 361.56 366.302 373.013 371.005 376.736C371.005 376.736 366.493 377.305 362.805 369.741C362.805 369.741 355.643 372.61 354.02 377.258C352.396 381.905 350.63 404.657 362.876 416.466Z" fill="#0C3A4D"/>
<path d="M362.235 418.755C362.379 418.753 362.517 418.7 362.625 418.604C362.733 418.508 362.804 418.377 362.823 418.233C365.929 392.6 385.26 358.925 404.215 346.28C404.346 346.192 404.437 346.055 404.467 345.899C404.498 345.744 404.467 345.582 404.379 345.45C404.292 345.318 404.156 345.226 404.002 345.195C403.847 345.164 403.687 345.196 403.556 345.284C384.366 358.154 364.729 392.173 361.659 418.091C361.638 418.246 361.68 418.404 361.775 418.528C361.87 418.653 362.01 418.734 362.164 418.755H362.235Z" fill="#68BCC8"/>
<path d="M360.38 422.598C361.087 422.108 361.67 421.458 362.082 420.702C362.494 419.946 362.723 419.104 362.751 418.243V134.719C362.703 133.826 362.444 132.958 361.997 132.185C361.55 131.412 360.927 130.755 360.179 130.268L182.365 27.4728C181.622 27.0061 180.765 26.7511 179.888 26.7352C179.011 26.7192 178.146 26.943 177.387 27.3824C176.627 27.8218 176.002 28.4602 175.578 29.2289C175.153 29.9976 174.947 30.8675 174.979 31.7451L355.401 422.503C356.165 422.91 357.014 423.13 357.879 423.147C358.744 423.163 359.601 422.975 360.38 422.598Z" fill="#BAD2DE"/>
<path d="M357.95 140.936L285.886 93.2354L290.688 90.4238L360.185 131.018C360.932 131.508 361.554 132.17 362 132.95C362.446 133.73 362.704 134.605 362.752 135.504V138.124L357.95 140.936Z" fill="#37474F"/>
<path opacity="0.2" d="M357.95 140.936L285.886 93.2354L290.688 90.4238L360.185 131.018C360.932 131.508 361.554 132.17 362 132.95C362.446 133.73 362.704 134.605 362.752 135.504V138.124L357.95 140.936Z" fill="#37474F"/>
<path d="M334.201 148.386L362.012 132.152C362.465 132.917 362.719 133.787 362.749 134.68V418.15C362.779 419.026 362.574 419.894 362.154 420.661C361.735 421.428 361.118 422.065 360.369 422.503C359.62 422.941 358.767 423.164 357.903 423.147C357.039 423.131 356.195 422.876 355.463 422.41L334.201 410.009V148.386Z" fill="#263238"/>
<path opacity="0.4" d="M334.201 148.386L362.012 132.152C362.465 132.917 362.719 133.787 362.749 134.68V418.15C362.779 419.026 362.574 419.894 362.154 420.661C361.735 421.428 361.118 422.065 360.369 422.503C359.62 422.941 358.767 423.164 357.903 423.147C357.039 423.131 356.195 422.876 355.463 422.41L334.201 410.009V148.386Z" fill="#263238"/>
<path d="M355.781 422.798L177.555 319.956C176.804 319.469 176.18 318.812 175.732 318.039C175.284 317.265 175.025 316.397 174.976 315.504V31.8641C174.976 30.2257 176.165 29.5608 177.555 30.38L355.781 133.222C356.531 133.709 357.155 134.366 357.604 135.139C358.052 135.913 358.31 136.781 358.359 137.674V421.314C358.359 422.952 357.206 423.617 355.781 422.798Z" fill="#455A64"/>
<path opacity="0.1" d="M355.781 422.798L177.555 319.956C176.804 319.469 176.18 318.812 175.732 318.039C175.284 317.265 175.025 316.397 174.976 315.504V31.8641C174.976 30.2257 176.165 29.5608 177.555 30.38L355.781 133.222C356.531 133.709 357.155 134.366 357.604 135.139C358.052 135.913 358.31 136.781 358.359 137.674V421.314C358.359 422.952 357.206 423.617 355.781 422.798Z" fill="#455A64"/>
<path d="M343.366 202.624L300.878 177.917C298.057 176.277 295.768 177.442 295.768 180.518C295.894 182.245 296.422 183.919 297.31 185.402C298.198 186.886 299.42 188.139 300.878 189.059L343.366 213.766C346.199 215.406 348.477 214.241 348.477 211.165C348.353 209.437 347.826 207.762 346.938 206.278C346.05 204.794 344.826 203.542 343.366 202.624Z" fill="#0C3A4D"/>
<path d="M343.355 220.367L315.166 204.261C312.338 202.646 310.044 203.793 310.044 206.824C310.17 208.526 310.699 210.175 311.589 211.637C312.479 213.099 313.704 214.334 315.166 215.24L343.355 231.347C346.194 232.962 348.477 231.815 348.477 228.784C348.353 227.081 347.825 225.431 346.934 223.968C346.044 222.506 344.818 221.272 343.355 220.367Z" fill="#0C3A4D"/>
<path d="M346.371 251.048L340.699 247.741C339.482 247.065 338.594 247.618 338.594 248.971V255.584C338.633 256.323 338.844 257.042 339.21 257.682C339.576 258.323 340.086 258.868 340.699 259.272L346.371 262.53C347.588 263.218 348.477 262.665 348.477 261.301V254.687C348.429 253.957 348.214 253.248 347.848 252.617C347.483 251.985 346.977 251.448 346.371 251.048Z" fill="#0C3A4D"/>
<path opacity="0.2" d="M346.371 251.048L340.699 247.741C339.482 247.065 338.594 247.618 338.594 248.971V255.584C338.633 256.323 338.844 257.042 339.21 257.682C339.576 258.323 340.086 258.868 340.699 259.272L346.371 262.53C347.588 263.218 348.477 262.665 348.477 261.301V254.687C348.429 253.957 348.214 253.248 347.848 252.617C347.483 251.985 346.977 251.448 346.371 251.048Z" fill="black"/>
<path d="M346.371 273.007L340.699 269.71C339.482 269.024 338.594 269.575 338.594 270.936V277.528C338.636 278.264 338.848 278.979 339.214 279.617C339.58 280.256 340.088 280.799 340.699 281.204L346.371 284.501C347.588 285.175 348.477 284.623 348.477 283.275V276.683C348.439 275.946 348.229 275.229 347.863 274.59C347.497 273.951 346.985 273.408 346.371 273.007Z" fill="#0C3A4D"/>
<g opacity="0.2">
<path opacity="0.2" d="M346.371 273.007L340.699 269.71C339.482 269.024 338.594 269.575 338.594 270.936V277.528C338.636 278.264 338.848 278.979 339.214 279.617C339.58 280.256 340.088 280.799 340.699 281.204L346.371 284.501C347.588 285.175 348.477 284.623 348.477 283.275V276.683C348.439 275.946 348.229 275.229 347.863 274.59C347.497 273.951 346.985 273.408 346.371 273.007Z" fill="black"/>
</g>
<path d="M331.635 266.855L298.334 247.818C296.915 247.011 295.768 247.584 295.768 249.105C295.832 249.956 296.098 250.779 296.544 251.509C296.99 252.239 297.603 252.854 298.334 253.306L331.635 272.343C333.054 273.15 334.201 272.577 334.201 271.056C334.137 270.205 333.871 269.382 333.425 268.652C332.979 267.923 332.366 267.307 331.635 266.855Z" fill="#0C3A4D"/>
<path opacity="0.2" d="M331.635 266.855L298.334 247.818C296.915 247.011 295.768 247.584 295.768 249.105C295.832 249.956 296.098 250.779 296.544 251.509C296.99 252.239 297.603 252.854 298.334 253.306L331.635 272.343C333.054 273.15 334.201 272.577 334.201 271.056C334.137 270.205 333.871 269.382 333.425 268.652C332.979 267.923 332.366 267.307 331.635 266.855Z" fill="black"/>
<path d="M346.371 294.968L340.699 291.671C339.482 290.985 338.594 291.536 338.594 292.897V299.489C338.635 300.225 338.847 300.941 339.213 301.579C339.578 302.218 340.088 302.761 340.699 303.165L346.371 306.462C347.588 307.136 348.477 306.584 348.477 305.236V298.644C348.439 297.907 348.229 297.19 347.863 296.551C347.497 295.912 346.985 295.369 346.371 294.968Z" fill="#BAD2DE"/>
<path d="M331.635 288.794L298.334 269.781C296.915 268.973 295.768 269.547 295.768 271.068C295.831 271.919 296.096 272.743 296.542 273.473C296.988 274.203 297.602 274.818 298.334 275.268L331.635 294.305C333.054 295.113 334.201 294.539 334.201 293.018C334.141 292.164 333.876 291.336 333.43 290.602C332.984 289.867 332.369 289.248 331.635 288.794Z" fill="#F0F0F0"/>
<path d="M346.371 316.93L340.699 313.634C339.482 312.948 338.594 313.499 338.594 314.859V321.452C338.635 322.188 338.847 322.904 339.213 323.542C339.578 324.18 340.088 324.724 340.699 325.128L346.371 328.425C347.588 329.099 348.477 328.547 348.477 327.199V320.607C348.439 319.87 348.229 319.153 347.863 318.514C347.497 317.875 346.985 317.332 346.371 316.93Z" fill="#BAD2DE"/>
<path d="M331.635 310.777L298.334 291.747C296.915 290.928 295.768 291.513 295.768 293.023C295.831 293.876 296.096 294.702 296.541 295.434C296.987 296.166 297.602 296.783 298.334 297.236L331.635 316.266C333.054 317.074 334.201 316.5 334.201 314.979C334.137 314.128 333.871 313.305 333.425 312.575C332.979 311.845 332.366 311.229 331.635 310.777Z" fill="#F0F0F0"/>
<path d="M346.371 339.99L340.699 336.694C339.482 336.007 338.594 336.559 338.594 337.919V344.512C338.635 345.247 338.847 345.963 339.213 346.602C339.578 347.24 340.088 347.783 340.699 348.188L346.371 351.484C347.588 352.158 348.477 351.607 348.477 350.259V343.666C348.439 342.929 348.229 342.212 347.863 341.573C347.497 340.934 346.985 340.392 346.371 339.99Z" fill="#BAD2DE"/>
<path d="M331.635 333.838L298.334 314.808C296.915 313.989 295.768 314.574 295.768 316.084C295.831 316.937 296.096 317.763 296.541 318.495C296.987 319.227 297.602 319.844 298.334 320.297L331.635 339.327C333.054 340.135 334.201 339.561 334.201 338.04C334.137 337.189 333.871 336.366 333.425 335.636C332.979 334.906 332.366 334.29 331.635 333.838Z" fill="#F0F0F0"/>
<path d="M345.942 361.289L322.473 347.745C321.065 346.938 319.927 347.511 319.927 349.033C319.991 349.884 320.254 350.707 320.697 351.437C321.139 352.168 321.748 352.783 322.473 353.235L345.942 366.778C347.338 367.586 348.477 367.013 348.477 365.503C348.415 364.651 348.153 363.826 347.713 363.094C347.273 362.362 346.666 361.743 345.942 361.289Z" fill="#0C3A4D"/>
<path d="M345.928 372.173L298.328 344.458C296.912 343.637 295.768 344.22 295.768 345.755C295.83 346.622 296.094 347.462 296.539 348.206C296.984 348.95 297.597 349.578 298.328 350.039L345.928 377.754C347.332 378.575 348.477 377.992 348.477 376.457C348.415 375.591 348.152 374.753 347.709 374.008C347.266 373.264 346.656 372.636 345.928 372.173Z" fill="#0C3A4D"/>
<path opacity="0.8" d="M345.928 372.173L298.328 344.458C296.912 343.637 295.768 344.22 295.768 345.755C295.83 346.622 296.094 347.462 296.539 348.206C296.984 348.95 297.597 349.578 298.328 350.039L345.928 377.754C347.332 378.575 348.477 377.992 348.477 376.457C348.415 375.591 348.152 374.753 347.709 374.008C347.266 373.264 346.656 372.636 345.928 372.173Z" fill="#68BCC8"/>
<path d="M345.921 372.27L312.599 353.236C311.191 352.428 310.044 353.002 310.044 354.524C310.107 355.373 310.372 356.196 310.816 356.926C311.259 357.656 311.87 358.272 312.599 358.726L345.921 377.76C347.329 378.568 348.477 377.994 348.477 376.484C348.414 375.632 348.151 374.807 347.707 374.075C347.263 373.343 346.651 372.725 345.921 372.27Z" fill="#0C3A4D"/>
<path d="M345.942 383.251L322.473 369.708C321.065 368.9 319.927 369.474 319.927 370.995C319.991 371.846 320.254 372.67 320.697 373.4C321.139 374.13 321.748 374.746 322.473 375.198L345.942 388.741C347.338 389.549 348.477 388.975 348.477 387.465C348.415 386.613 348.153 385.788 347.713 385.056C347.273 384.324 346.666 383.706 345.942 383.251Z" fill="#0C3A4D"/>
<path d="M331.635 243.792L298.334 224.758C296.915 223.951 295.768 224.524 295.768 226.046C295.832 226.897 296.098 227.721 296.544 228.451C296.99 229.181 297.603 229.797 298.334 230.249L331.635 249.282C333.054 250.09 334.201 249.516 334.201 248.006C334.139 247.154 333.874 246.327 333.428 245.595C332.982 244.863 332.368 244.245 331.635 243.792Z" fill="#0C3A4D"/>
<path opacity="0.2" d="M331.635 243.792L298.334 224.758C296.915 223.951 295.768 224.524 295.768 226.046C295.832 226.897 296.098 227.721 296.544 228.451C296.99 229.181 297.603 229.797 298.334 230.249L331.635 249.282C333.054 250.09 334.201 249.516 334.201 248.006C334.139 247.154 333.874 246.327 333.428 245.595C332.982 244.863 332.368 244.245 331.635 243.792Z" fill="black"/>
<path d="M345.942 383.251L322.473 369.708C321.065 368.9 319.927 369.474 319.927 370.995C319.991 371.846 320.254 372.67 320.697 373.4C321.139 374.13 321.748 374.746 322.473 375.198L345.942 388.741C347.338 389.549 348.477 388.975 348.477 387.465C348.415 386.613 348.153 385.788 347.713 385.056C347.273 384.324 346.666 383.706 345.942 383.251Z" fill="#0C3A4D"/>
<path d="M345.928 395.268L298.328 367.518C296.912 366.696 295.768 367.28 295.768 368.817C295.83 369.685 296.094 370.526 296.539 371.271C296.984 372.017 297.597 372.645 298.328 373.106L345.928 400.809C347.332 401.643 348.477 401.047 348.477 399.51C348.407 398.651 348.141 397.821 347.699 397.085C347.257 396.348 346.65 395.726 345.928 395.268Z" fill="#0C3A4D"/>
<path opacity="0.8" d="M345.928 395.268L298.328 367.518C296.912 366.696 295.768 367.28 295.768 368.817C295.83 369.685 296.094 370.526 296.539 371.271C296.984 372.017 297.597 372.645 298.328 373.106L345.928 400.809C347.332 401.643 348.477 401.047 348.477 399.51C348.407 398.651 348.141 397.821 347.699 397.085C347.257 396.348 346.65 395.726 345.928 395.268Z" fill="#68BCC8"/>
<path d="M345.907 394.239L302.741 369.707C301.314 368.901 300.16 369.473 300.16 370.992C300.225 371.841 300.492 372.663 300.941 373.392C301.389 374.12 302.006 374.735 302.741 375.186L345.907 399.718C347.323 400.536 348.477 399.952 348.477 398.445C348.414 397.595 348.149 396.771 347.703 396.041C347.256 395.31 346.641 394.693 345.907 394.239Z" fill="#0C3A4D"/>
<path d="M177.553 30.3712L285.885 92.9311V382.518L177.553 319.97C176.803 319.484 176.179 318.827 175.731 318.053C175.284 317.279 175.025 316.411 174.977 315.518V31.8553C174.988 30.2643 176.176 29.5519 177.553 30.3712Z" fill="#EBEBEB"/>
<path opacity="0.6" d="M177.553 30.3712L285.885 92.9311V382.518L177.553 319.97C176.803 319.484 176.179 318.827 175.731 318.053C175.284 317.279 175.025 316.411 174.977 315.518V31.8553C174.988 30.2643 176.176 29.5519 177.553 30.3712Z" fill="#FAFAFA"/>
<path d="M286.128 103.899V126.181L295.768 137.322H286.128V159.605L184.86 101.108V45.4023L286.128 103.899Z" fill="#0C3A4D"/>
<g opacity="0.6">
<path opacity="0.6" d="M272.428 104.743L231.259 81.0482C229.27 79.8635 227.686 80.835 227.686 83.1215C227.751 84.3639 228.109 85.5736 228.729 86.6538C229.35 87.7339 230.216 88.6544 231.259 89.3414L272.428 112.977C274.43 114.161 276.002 113.19 276.002 110.903C275.93 109.671 275.569 108.472 274.949 107.402C274.328 106.333 273.465 105.422 272.428 104.743Z" fill="#68BCC8"/>
</g>
<path d="M274.714 122.621L194.934 76.3331C194.218 75.9256 193.645 76.2132 193.645 76.9923C193.676 77.4283 193.809 77.8509 194.033 78.2258C194.257 78.6006 194.565 78.9171 194.934 79.1497L274.714 125.378C275.429 125.785 276.002 125.498 276.002 124.718C275.962 124.293 275.825 123.882 275.602 123.518C275.378 123.155 275.075 122.848 274.714 122.621Z" fill="#0C3A4D"/>
<path d="M274.714 122.621L194.934 76.3331C194.218 75.9256 193.645 76.2132 193.645 76.9923C193.676 77.4283 193.809 77.8509 194.033 78.2258C194.257 78.6006 194.565 78.9171 194.934 79.1497L274.714 125.378C275.429 125.785 276.002 125.498 276.002 124.718C275.962 124.293 275.825 123.882 275.602 123.518C275.378 123.155 275.075 122.848 274.714 122.621Z" fill="#0C3A4D"/>
<path opacity="0.6" d="M274.714 122.621L194.934 76.3331C194.218 75.9256 193.645 76.2132 193.645 76.9923C193.676 77.4283 193.809 77.8509 194.033 78.2258C194.257 78.6006 194.565 78.9171 194.934 79.1497L274.714 125.378C275.429 125.785 276.002 125.498 276.002 124.718C275.962 124.293 275.825 123.882 275.602 123.518C275.378 123.155 275.075 122.848 274.714 122.621Z" fill="#68BCC8"/>
<path d="M274.714 131.357L194.934 85.1238C194.218 84.7048 193.645 85.0041 193.645 85.7822C193.676 86.2162 193.809 86.6366 194.033 87.0091C194.257 87.3815 194.565 87.6955 194.934 87.9251L274.714 134.158C275.429 134.577 276.002 134.278 276.002 133.5C275.971 133.066 275.838 132.645 275.614 132.273C275.391 131.901 275.082 131.587 274.714 131.357Z" fill="#0C3A4D"/>
<path opacity="0.6" d="M274.714 131.357L194.934 85.1238C194.218 84.7048 193.645 85.0041 193.645 85.7822C193.676 86.2162 193.809 86.6366 194.033 87.0091C194.257 87.3815 194.565 87.6955 194.934 87.9251L274.714 134.158C275.429 134.577 276.002 134.278 276.002 133.5C275.971 133.066 275.838 132.645 275.614 132.273C275.391 131.901 275.082 131.587 274.714 131.357Z" fill="#68BCC8"/>
<path opacity="0.6" d="M274.714 140.135L194.934 93.9032C194.218 93.4962 193.645 93.7835 193.645 94.5616C193.676 94.9971 193.809 95.4192 194.033 95.7936C194.257 96.168 194.565 96.4841 194.934 96.7164L274.714 142.948C275.429 143.355 276.002 143.068 276.002 142.29C275.971 141.854 275.838 141.432 275.615 141.058C275.391 140.683 275.082 140.367 274.714 140.135Z" fill="#68BCC8"/>
<path d="M271.737 163.209L266.029 159.9C264.812 159.214 263.923 159.765 263.923 161.126V167.718C263.964 168.454 264.175 169.17 264.541 169.809C264.907 170.447 265.416 170.991 266.029 171.394L271.701 174.691C272.918 175.365 273.806 174.813 273.806 173.465V166.885C273.773 166.152 273.568 165.436 273.208 164.798C272.849 164.159 272.345 163.615 271.737 163.209Z" fill="#0C3A4D"/>
<path opacity="0.2" d="M271.737 163.209L266.029 159.9C264.812 159.214 263.923 159.765 263.923 161.126V167.718C263.964 168.454 264.175 169.17 264.541 169.809C264.907 170.447 265.416 170.991 266.029 171.394L271.701 174.691C272.918 175.365 273.806 174.813 273.806 173.465V166.885C273.773 166.152 273.568 165.436 273.208 164.798C272.849 164.159 272.345 163.615 271.737 163.209Z" fill="#68BCC8"/>
<path d="M256.964 157.045L223.663 138.008C222.244 137.201 221.097 137.774 221.097 139.295C221.162 140.146 221.427 140.969 221.873 141.699C222.319 142.429 222.932 143.044 223.663 143.496L256.964 162.533C258.383 163.34 259.53 162.767 259.53 161.246C259.466 160.395 259.2 159.572 258.754 158.842C258.309 158.112 257.695 157.497 256.964 157.045Z" fill="#0C3A4D"/>
<path opacity="0.8" d="M256.964 157.045L223.663 138.008C222.244 137.201 221.097 137.774 221.097 139.295C221.162 140.146 221.427 140.969 221.873 141.699C222.319 142.429 222.932 143.044 223.663 143.496L256.964 162.533C258.383 163.34 259.53 162.767 259.53 161.246C259.466 160.395 259.2 159.572 258.754 158.842C258.309 158.112 257.695 157.497 256.964 157.045Z" fill="#68BCC8"/>
<path d="M272.526 181.906L188.338 133.438C187.626 133.024 187.057 133.319 187.057 134.076C187.087 134.506 187.219 134.924 187.441 135.293C187.664 135.663 187.971 135.975 188.338 136.204L272.526 184.673C273.237 185.086 273.806 184.791 273.806 184.023C273.776 183.594 273.644 183.179 273.421 182.811C273.198 182.443 272.891 182.133 272.526 181.906Z" fill="#0C3A4D"/>
<path d="M272.526 190.685L188.338 142.217C187.626 141.815 187.057 142.099 187.057 142.867C187.088 143.297 187.22 143.714 187.442 144.084C187.665 144.453 187.972 144.765 188.338 144.995L272.526 193.463C273.237 193.865 273.806 193.581 273.806 192.812C273.775 192.382 273.644 191.966 273.421 191.596C273.199 191.226 272.892 190.914 272.526 190.685Z" fill="#0C3A4D"/>
<path d="M272.526 199.475L188.338 151.007C187.626 150.593 187.057 150.889 187.057 151.645C187.087 152.076 187.219 152.493 187.441 152.863C187.664 153.233 187.971 153.545 188.338 153.773L272.526 202.242C273.237 202.655 273.806 202.36 273.806 201.603C273.776 201.173 273.645 200.756 273.422 200.386C273.2 200.016 272.892 199.704 272.526 199.475Z" fill="#0C3A4D"/>
<path d="M272.526 207.157L188.338 158.689C187.626 158.287 187.057 158.571 187.057 159.339C187.088 159.769 187.22 160.186 187.442 160.556C187.665 160.925 187.972 161.238 188.338 161.467L272.526 209.935C273.237 210.337 273.806 210.053 273.806 209.285C273.775 208.855 273.644 208.438 273.421 208.068C273.199 207.698 272.892 207.386 272.526 207.157Z" fill="#0C3A4D"/>
<path d="M272.526 181.906L188.338 133.438C187.626 133.024 187.057 133.319 187.057 134.076C187.087 134.506 187.219 134.924 187.441 135.293C187.664 135.663 187.971 135.975 188.338 136.204L272.526 184.673C273.237 185.086 273.806 184.791 273.806 184.023C273.776 183.594 273.644 183.179 273.421 182.811C273.198 182.443 272.891 182.133 272.526 181.906Z" fill="#BAD2DE"/>
<path d="M272.526 190.685L188.338 142.217C187.626 141.815 187.057 142.099 187.057 142.867C187.088 143.297 187.22 143.714 187.442 144.084C187.665 144.453 187.972 144.765 188.338 144.995L272.526 193.463C273.237 193.865 273.806 193.581 273.806 192.812C273.775 192.382 273.644 191.966 273.421 191.596C273.199 191.226 272.892 190.914 272.526 190.685Z" fill="#BAD2DE"/>
<path d="M272.526 199.475L188.338 151.007C187.626 150.593 187.057 150.889 187.057 151.645C187.087 152.076 187.219 152.493 187.441 152.863C187.664 153.233 187.971 153.545 188.338 153.773L272.526 202.242C273.237 202.655 273.806 202.36 273.806 201.603C273.776 201.173 273.645 200.756 273.422 200.386C273.2 200.016 272.892 199.704 272.526 199.475Z" fill="#BAD2DE"/>
<path d="M272.526 207.157L188.338 158.689C187.626 158.287 187.057 158.571 187.057 159.339C187.088 159.769 187.22 160.186 187.442 160.556C187.665 160.925 187.972 161.238 188.338 161.467L272.526 209.935C273.237 210.337 273.806 210.053 273.806 209.285C273.775 208.855 273.644 208.438 273.421 208.068C273.199 207.698 272.892 207.386 272.526 207.157Z" fill="#BAD2DE"/>
<path opacity="0.8" d="M272.526 181.906L188.338 133.438C187.626 133.024 187.057 133.319 187.057 134.076C187.087 134.506 187.219 134.924 187.441 135.293C187.664 135.663 187.971 135.975 188.338 136.204L272.526 184.673C273.237 185.086 273.806 184.791 273.806 184.023C273.776 183.594 273.644 183.179 273.421 182.811C273.198 182.443 272.891 182.133 272.526 181.906Z" fill="#BAD2DE"/>
<path opacity="0.8" d="M272.526 190.685L188.338 142.217C187.626 141.815 187.057 142.099 187.057 142.867C187.088 143.297 187.22 143.714 187.442 144.084C187.665 144.453 187.972 144.765 188.338 144.995L272.526 193.463C273.237 193.865 273.806 193.581 273.806 192.812C273.775 192.382 273.644 191.966 273.421 191.596C273.199 191.226 272.892 190.914 272.526 190.685Z" fill="#BAD2DE"/>
<path opacity="0.8" d="M272.526 199.475L188.338 151.007C187.626 150.593 187.057 150.889 187.057 151.645C187.087 152.076 187.219 152.493 187.441 152.863C187.664 153.233 187.971 153.545 188.338 153.773L272.526 202.242C273.237 202.655 273.806 202.36 273.806 201.603C273.776 201.173 273.645 200.756 273.422 200.386C273.2 200.016 272.892 199.704 272.526 199.475Z" fill="#BAD2DE"/>
<path opacity="0.8" d="M272.526 207.157L188.338 158.689C187.626 158.287 187.057 158.571 187.057 159.339C187.088 159.769 187.22 160.186 187.442 160.556C187.665 160.925 187.972 161.238 188.338 161.467L272.526 209.935C273.237 210.337 273.806 210.053 273.806 209.285C273.775 208.855 273.644 208.438 273.421 208.068C273.199 207.698 272.892 207.386 272.526 207.157Z" fill="#BAD2DE"/>
<path d="M272.526 243.401L188.338 194.932C187.626 194.518 187.057 194.814 187.057 195.57C187.087 196.001 187.219 196.418 187.441 196.788C187.664 197.157 187.971 197.469 188.338 197.698L272.526 246.167C273.237 246.581 273.806 246.285 273.806 245.517C273.776 245.088 273.644 244.673 273.421 244.305C273.198 243.937 272.891 243.627 272.526 243.401Z" fill="#BAD2DE"/>
<path d="M272.526 251.081L188.338 202.613C187.626 202.211 187.057 202.495 187.057 203.263C187.088 203.693 187.22 204.11 187.442 204.48C187.665 204.849 187.972 205.161 188.338 205.391L272.526 253.859C273.237 254.261 273.806 253.977 273.806 253.208C273.775 252.778 273.644 252.362 273.421 251.992C273.199 251.622 272.892 251.31 272.526 251.081Z" fill="#BAD2DE"/>
<path d="M272.526 259.871L188.338 211.403C187.626 210.989 187.057 211.285 187.057 212.041C187.087 212.472 187.219 212.889 187.441 213.259C187.664 213.629 187.971 213.941 188.338 214.169L272.526 262.638C273.237 263.051 273.806 262.756 273.806 261.999C273.776 261.569 273.645 261.152 273.422 260.782C273.2 260.412 272.892 260.1 272.526 259.871Z" fill="#BAD2DE"/>
<path d="M272.526 267.552L188.338 219.084C187.626 218.683 187.057 218.966 187.057 219.735C187.088 220.165 187.22 220.582 187.442 220.951C187.665 221.321 187.972 221.633 188.338 221.863L272.526 270.33C273.237 270.732 273.806 270.449 273.806 269.68C273.775 269.25 273.644 268.833 273.421 268.464C273.199 268.094 272.892 267.782 272.526 267.552Z" fill="#BAD2DE"/>
<path opacity="0.8" d="M272.526 243.401L188.338 194.932C187.626 194.518 187.057 194.814 187.057 195.57C187.087 196.001 187.219 196.418 187.441 196.788C187.664 197.157 187.971 197.469 188.338 197.698L272.526 246.167C273.237 246.581 273.806 246.285 273.806 245.517C273.776 245.088 273.644 244.673 273.421 244.305C273.198 243.937 272.891 243.627 272.526 243.401Z" fill="#BAD2DE"/>
<path opacity="0.8" d="M272.526 251.081L188.338 202.613C187.626 202.211 187.057 202.495 187.057 203.263C187.088 203.693 187.22 204.11 187.442 204.48C187.665 204.849 187.972 205.161 188.338 205.391L272.526 253.859C273.237 254.261 273.806 253.977 273.806 253.208C273.775 252.778 273.644 252.362 273.421 251.992C273.199 251.622 272.892 251.31 272.526 251.081Z" fill="#BAD2DE"/>
<path opacity="0.8" d="M272.526 259.871L188.338 211.403C187.626 210.989 187.057 211.285 187.057 212.041C187.087 212.472 187.219 212.889 187.441 213.259C187.664 213.629 187.971 213.941 188.338 214.169L272.526 262.638C273.237 263.051 273.806 262.756 273.806 261.999C273.776 261.569 273.645 261.152 273.422 260.782C273.2 260.412 272.892 260.1 272.526 259.871Z" fill="#BAD2DE"/>
<path opacity="0.8" d="M272.526 267.552L188.338 219.084C187.626 218.683 187.057 218.966 187.057 219.735C187.088 220.165 187.22 220.582 187.442 220.951C187.665 221.321 187.972 221.633 188.338 221.863L272.526 270.33C273.237 270.732 273.806 270.449 273.806 269.68C273.775 269.25 273.644 268.833 273.421 268.464C273.199 268.094 272.892 267.782 272.526 267.552Z" fill="#BAD2DE"/>
<path d="M272.526 304.894L188.338 256.425C187.626 256.011 187.057 256.307 187.057 257.063C187.087 257.494 187.219 257.911 187.441 258.281C187.664 258.651 187.971 258.963 188.338 259.191L272.526 307.66C273.237 308.074 273.806 307.778 273.806 307.01C273.776 306.581 273.644 306.166 273.421 305.798C273.198 305.431 272.891 305.121 272.526 304.894Z" fill="#BAD2DE"/>
<path d="M272.526 312.574L188.338 264.106C187.626 263.705 187.057 263.988 187.057 264.757C187.088 265.187 187.22 265.603 187.442 265.973C187.665 266.343 187.972 266.655 188.338 266.884L272.526 315.352C273.237 315.754 273.806 315.47 273.806 314.702C273.775 314.272 273.644 313.855 273.421 313.486C273.199 313.116 272.892 312.804 272.526 312.574Z" fill="#BAD2DE"/>
<path d="M272.526 321.365L188.338 272.897C187.626 272.483 187.057 272.778 187.057 273.535C187.087 273.965 187.219 274.383 187.441 274.752C187.664 275.122 187.971 275.434 188.338 275.663L272.526 324.131C273.237 324.545 273.806 324.25 273.806 323.493C273.776 323.063 273.645 322.646 273.422 322.276C273.2 321.906 272.892 321.594 272.526 321.365Z" fill="#BAD2DE"/>
<path d="M272.526 330.144L188.338 281.676C187.626 281.274 187.057 281.558 187.057 282.326C187.088 282.756 187.22 283.173 187.442 283.543C187.665 283.912 187.972 284.224 188.338 284.454L272.526 332.922C273.237 333.324 273.806 333.04 273.806 332.271C273.775 331.841 273.644 331.425 273.421 331.055C273.199 330.685 272.892 330.373 272.526 330.144Z" fill="#BAD2DE"/>
<path opacity="0.8" d="M272.526 304.894L188.338 256.425C187.626 256.011 187.057 256.307 187.057 257.063C187.087 257.494 187.219 257.911 187.441 258.281C187.664 258.651 187.971 258.963 188.338 259.191L272.526 307.66C273.237 308.074 273.806 307.778 273.806 307.01C273.776 306.581 273.644 306.166 273.421 305.798C273.198 305.431 272.891 305.121 272.526 304.894Z" fill="#BAD2DE"/>
<path opacity="0.8" d="M272.526 312.574L188.338 264.106C187.626 263.705 187.057 263.988 187.057 264.757C187.088 265.187 187.22 265.603 187.442 265.973C187.665 266.343 187.972 266.655 188.338 266.884L272.526 315.352C273.237 315.754 273.806 315.47 273.806 314.702C273.775 314.272 273.644 313.855 273.421 313.486C273.199 313.116 272.892 312.804 272.526 312.574Z" fill="#BAD2DE"/>
<path opacity="0.8" d="M272.526 321.365L188.338 272.897C187.626 272.483 187.057 272.778 187.057 273.535C187.087 273.965 187.219 274.383 187.441 274.752C187.664 275.122 187.971 275.434 188.338 275.663L272.526 324.131C273.237 324.545 273.806 324.25 273.806 323.493C273.776 323.063 273.645 322.646 273.422 322.276C273.2 321.906 272.892 321.594 272.526 321.365Z" fill="#BAD2DE"/>
<path opacity="0.8" d="M272.526 330.144L188.338 281.676C187.626 281.274 187.057 281.558 187.057 282.326C187.088 282.756 187.22 283.173 187.442 283.543C187.665 283.912 187.972 284.224 188.338 284.454L272.526 332.922C273.237 333.324 273.806 333.04 273.806 332.271C273.775 331.841 273.644 331.425 273.421 331.055C273.199 330.685 272.892 330.373 272.526 330.144Z" fill="#BAD2DE"/>
<path d="M271.737 223.58L266.029 220.288C264.812 219.615 263.923 220.165 263.923 221.512V228.121C263.961 228.856 264.171 229.573 264.537 230.211C264.903 230.849 265.414 231.391 266.029 231.792L271.701 235.084C272.918 235.758 273.806 235.219 273.806 233.861V227.276C273.775 226.54 273.572 225.821 273.212 225.179C272.853 224.536 272.347 223.988 271.737 223.58Z" fill="#0C3A4D"/>
<path opacity="0.2" d="M271.737 223.58L266.029 220.288C264.812 219.615 263.923 220.165 263.923 221.512V228.121C263.961 228.856 264.171 229.573 264.537 230.211C264.903 230.849 265.414 231.391 266.029 231.792L271.701 235.084C272.918 235.758 273.806 235.219 273.806 233.861V227.276C273.775 226.54 273.572 225.821 273.212 225.179C272.853 224.536 272.347 223.988 271.737 223.58Z" fill="#68BCC8"/>
<path d="M256.964 217.474L223.663 198.405C222.244 197.596 221.097 198.17 221.097 199.683C221.16 200.538 221.425 201.365 221.871 202.099C222.316 202.833 222.931 203.451 223.663 203.905L256.964 222.927C258.383 223.736 259.53 223.162 259.53 221.649C259.461 220.803 259.192 219.984 258.747 219.259C258.301 218.535 257.691 217.923 256.964 217.474Z" fill="#0C3A4D"/>
<path opacity="0.8" d="M256.964 217.474L223.663 198.405C222.244 197.596 221.097 198.17 221.097 199.683C221.16 200.538 221.425 201.365 221.871 202.099C222.316 202.833 222.931 203.451 223.663 203.905L256.964 222.927C258.383 223.736 259.53 223.162 259.53 221.649C259.461 220.803 259.192 219.984 258.747 219.259C258.301 218.535 257.691 217.923 256.964 217.474Z" fill="#68BCC8"/>
<path d="M271.737 285.085L266.029 281.789C264.812 281.103 263.923 281.654 263.923 283.014V289.607C263.962 290.343 264.173 291.06 264.539 291.699C264.904 292.338 265.415 292.881 266.029 293.283L271.701 296.579C272.918 297.253 273.806 296.702 273.806 295.354V288.761C273.773 288.028 273.568 287.313 273.208 286.674C272.849 286.035 272.345 285.491 271.737 285.085Z" fill="#0C3A4D"/>
<path opacity="0.2" d="M271.737 285.085L266.029 281.789C264.812 281.103 263.923 281.654 263.923 283.014V289.607C263.962 290.343 264.173 291.06 264.539 291.699C264.904 292.338 265.415 292.881 266.029 293.283L271.701 296.579C272.918 297.253 273.806 296.702 273.806 295.354V288.761C273.773 288.028 273.568 287.313 273.208 286.674C272.849 286.035 272.345 285.491 271.737 285.085Z" fill="#68BCC8"/>
<path d="M256.964 278.934L223.663 259.897C222.244 259.09 221.097 259.663 221.097 261.185C221.161 262.037 221.426 262.862 221.872 263.594C222.318 264.326 222.931 264.943 223.663 265.397L256.964 284.422C258.383 285.229 259.53 284.656 259.53 283.135C259.466 282.285 259.2 281.461 258.754 280.731C258.309 280.002 257.695 279.386 256.964 278.934Z" fill="#0C3A4D"/>
<path opacity="0.8" d="M256.964 278.934L223.663 259.897C222.244 259.09 221.097 259.663 221.097 261.185C221.161 262.037 221.426 262.862 221.872 263.594C222.318 264.326 222.931 264.943 223.663 265.397L256.964 284.422C258.383 285.229 259.53 284.656 259.53 283.135C259.466 282.285 259.2 281.461 258.754 280.731C258.309 280.002 257.695 279.386 256.964 278.934Z" fill="#68BCC8"/>
<path d="M264.016 338.884L258.351 335.587C257.136 334.913 256.236 335.465 256.236 336.813V343.405C256.276 344.143 256.488 344.861 256.856 345.499C257.224 346.138 257.736 346.681 258.351 347.082L264.016 350.378C265.171 351.064 266.119 350.513 266.119 349.153V342.56C266.077 341.824 265.865 341.109 265.5 340.471C265.134 339.833 264.626 339.289 264.016 338.884Z" fill="#0C3A4D"/>
<path d="M272.531 360.853L249.826 347.564C249.117 347.157 248.55 347.444 248.55 348.222C248.581 348.658 248.712 349.08 248.934 349.454C249.155 349.829 249.461 350.145 249.826 350.377L272.531 363.666C273.239 364.073 273.806 363.786 273.806 363.008C273.776 362.572 273.644 362.15 273.423 361.776C273.201 361.401 272.896 361.085 272.531 360.853Z" fill="#BAD2DE"/>
<path d="M233.257 321.316L227.592 318.019C226.437 317.344 225.489 317.896 225.489 319.245V325.839C225.528 326.576 225.739 327.293 226.105 327.932C226.47 328.57 226.98 329.114 227.592 329.517L233.257 332.814C234.472 333.489 235.372 332.949 235.372 331.589V324.994C235.331 324.256 235.118 323.539 234.751 322.9C234.383 322.261 233.871 321.718 233.257 321.316Z" fill="#0C3A4D"/>
<path d="M241.784 343.28L219.079 330C218.37 329.581 217.803 329.881 217.803 330.658C217.834 331.092 217.965 331.512 218.187 331.884C218.409 332.256 218.714 332.57 219.079 332.8L241.784 346.092C242.492 346.51 243.059 346.211 243.059 345.446C243.031 345.008 242.901 344.583 242.679 344.207C242.458 343.83 242.151 343.513 241.784 343.28Z" fill="#BAD2DE"/>
<path d="M202.52 303.753L196.848 300.457C195.692 299.771 194.743 300.322 194.743 301.682V308.275C194.784 309.011 194.996 309.726 195.362 310.365C195.728 311.003 196.237 311.546 196.848 311.951L202.52 315.247C203.737 315.921 204.626 315.37 204.626 314.022V307.429C204.588 306.693 204.378 305.975 204.012 305.336C203.646 304.697 203.135 304.155 202.52 303.753Z" fill="#0C3A4D"/>
<path opacity="0.2" d="M264.016 338.884L258.351 335.587C257.136 334.913 256.236 335.465 256.236 336.813V343.405C256.276 344.143 256.488 344.861 256.856 345.499C257.224 346.138 257.736 346.681 258.351 347.082L264.016 350.378C265.171 351.064 266.119 350.513 266.119 349.153V342.56C266.077 341.824 265.865 341.109 265.5 340.471C265.134 339.833 264.626 339.289 264.016 338.884Z" fill="#68BCC8"/>
<path opacity="0.2" d="M233.257 321.316L227.592 318.019C226.437 317.344 225.489 317.896 225.489 319.245V325.839C225.528 326.576 225.739 327.293 226.105 327.932C226.47 328.57 226.98 329.114 227.592 329.517L233.257 332.814C234.472 333.489 235.372 332.949 235.372 331.589V324.994C235.331 324.256 235.118 323.539 234.751 322.9C234.383 322.261 233.871 321.718 233.257 321.316Z" fill="#68BCC8"/>
<path opacity="0.2" d="M202.52 303.753L196.848 300.457C195.692 299.771 194.743 300.322 194.743 301.682V308.275C194.784 309.011 194.996 309.726 195.362 310.365C195.728 311.003 196.237 311.546 196.848 311.951L202.52 315.247C203.737 315.921 204.626 315.37 204.626 314.022V307.429C204.588 306.693 204.378 305.975 204.012 305.336C203.646 304.697 203.135 304.155 202.52 303.753Z" fill="#68BCC8"/>
<path d="M211.038 325.72L188.332 312.43C187.624 312.011 187.057 312.311 187.057 313.077C187.087 313.513 187.218 313.935 187.439 314.31C187.661 314.684 187.967 315 188.332 315.232L211.038 328.522C211.734 328.941 212.313 328.641 212.313 327.863C212.279 327.43 212.147 327.01 211.925 326.638C211.704 326.266 211.4 325.952 211.038 325.72Z" fill="#BAD2DE"/>
<path d="M324.319 127.63C337.664 135.154 348.477 153.905 348.477 169.5C348.477 185.096 337.664 191.501 324.319 183.787C310.973 176.072 300.161 157.333 300.161 141.904C300.161 126.475 310.985 120.094 324.319 127.63Z" fill="#FAFAFA"/>
<path d="M311.717 175.19L331.395 180.364C331.734 180.472 332.095 180.496 332.446 180.433C332.796 180.37 333.125 180.222 333.403 180.003C333.681 179.784 333.898 179.5 334.036 179.178C334.173 178.856 334.227 178.505 334.191 178.157V145.309C334.121 142.59 333.195 139.959 331.54 137.777C329.884 135.595 327.58 133.969 324.945 133.122L318.216 131.354C313.097 130.013 308.945 133.288 308.945 138.664V171.523C308.967 172.34 309.245 173.129 309.741 173.786C310.237 174.442 310.927 174.932 311.717 175.19Z" fill="#37474F"/>
<path d="M311.565 183.763L313.661 174.754C313.661 174.754 313.661 162.596 315.438 161.475C317.216 160.353 317.73 160.139 317.73 160.139C315.451 159.375 310.646 158.802 309.15 163.074C307.716 167.106 305.571 177.045 304.554 181.937L311.565 183.763Z" fill="#F28F8F"/>
<path d="M311.728 183.763L318.829 160.723C315.682 159.557 311.642 158.589 309.683 161.68C307.92 164.456 305.105 179.003 304.554 181.931L311.728 183.763Z" fill="#0C3A4D"/>
<g opacity="0.4">
<path opacity="0.4" d="M311.728 183.763L318.829 160.723C315.682 159.557 311.642 158.589 309.683 161.68C307.92 164.456 305.105 179.003 304.554 181.931L311.728 183.763Z" fill="black"/>
</g>
<path d="M310.743 184.105L317.73 185.958C317.449 183.975 316.788 182.064 315.781 180.327C314.383 178.336 312.371 176.845 310.044 176.076C310.548 178.722 310.782 181.412 310.743 184.105Z" fill="#0C3A4D"/>
<path d="M310.743 184.105L317.73 185.958C317.449 183.975 316.788 182.064 315.781 180.327C314.383 178.336 312.371 176.845 310.044 176.076C310.548 178.722 310.782 181.412 310.743 184.105Z" fill="#0C3A4D"/>
<g opacity="0.7">
<path opacity="0.7" d="M310.743 184.105L317.73 185.958C317.449 183.975 316.788 182.064 315.781 180.327C314.383 178.336 312.371 176.845 310.044 176.076C310.548 178.722 310.782 181.412 310.743 184.105Z" fill="black"/>
</g>
<path d="M312.97 184.209L331.913 189.252L333.997 182.816C333.997 182.816 328.468 169.907 335.299 166.588C334.435 165.939 327.154 163.104 327.154 163.104L319.328 160.742C317.836 160.34 311.81 163.01 310.282 168.927C309.738 171.017 309.927 172.895 312.993 183.784C312.958 183.926 312.97 184.068 312.97 184.209Z" fill="#0C3A4D"/>
<path d="M313.93 135.446C312.619 135.926 310.997 139.046 311.152 146.57C311.283 152.954 313.191 154.97 314.145 155.738C315.573 156.458 317.149 156.832 318.746 156.83V160.634C318.746 160.634 316.267 163.034 316.422 164.858C316.576 166.682 319.998 167.978 322.311 166.898C324 165.939 325.461 164.62 326.59 163.034V154.274C326.765 154.476 326.977 154.641 327.215 154.76C327.453 154.878 327.712 154.948 327.978 154.965C328.243 154.981 328.509 154.945 328.76 154.857C329.011 154.77 329.242 154.632 329.44 154.454C329.812 154.197 330.129 153.868 330.373 153.486C330.617 153.104 330.782 152.676 330.859 152.229C330.935 151.781 330.922 151.323 330.82 150.881C330.717 150.438 330.528 150.021 330.262 149.654C329.07 148.082 326.984 147.854 326.173 149.426C325.164 146.961 323.358 144.91 321.047 143.606C317.28 141.302 315.229 139.25 313.93 135.446Z" fill="#FFA8A7"/>
<path d="M317.731 147.215C317.727 147.509 317.775 147.799 317.869 148.043C317.962 148.288 318.096 148.476 318.253 148.582C318.32 148.622 318.391 148.633 318.46 148.615C318.53 148.596 318.596 148.548 318.653 148.475C318.709 148.401 318.755 148.305 318.785 148.194C318.816 148.082 318.831 147.96 318.828 147.836C318.832 147.542 318.784 147.252 318.691 147.008C318.597 146.763 318.463 146.575 318.306 146.47C318.24 146.429 318.169 146.418 318.099 146.436C318.029 146.455 317.963 146.503 317.907 146.577C317.85 146.65 317.805 146.746 317.774 146.858C317.743 146.969 317.729 147.092 317.731 147.215Z" fill="#37474F"/>
<path d="M317.683 151.918L315.535 152.039C315.598 152.303 315.769 152.544 316.02 152.721C316.271 152.898 316.589 153.002 316.922 153.016C317.519 152.98 317.862 152.461 317.683 151.918Z" fill="#F28F8F"/>
<path d="M312.341 143.132L313.338 142.558C313.279 142.37 313.165 142.215 313.017 142.123C312.87 142.032 312.7 142.01 312.54 142.062C312.469 142.115 312.407 142.186 312.358 142.269C312.31 142.352 312.275 142.446 312.256 142.546C312.238 142.645 312.236 142.749 312.25 142.849C312.265 142.95 312.296 143.046 312.341 143.132Z" fill="#37474F"/>
<path d="M319.839 146.427L318.829 144.53C318.882 144.429 318.947 144.351 319.018 144.299C319.089 144.248 319.166 144.225 319.242 144.232C319.318 144.239 319.393 144.276 319.461 144.34C319.529 144.404 319.589 144.495 319.637 144.605C319.777 144.821 319.874 145.12 319.91 145.45C319.947 145.781 319.922 146.126 319.839 146.427Z" fill="#37474F"/>
<path d="M312.241 145.028C312.236 145.321 312.284 145.609 312.377 145.853C312.471 146.096 312.606 146.282 312.763 146.385C312.83 146.426 312.902 146.437 312.972 146.417C313.043 146.398 313.109 146.349 313.166 146.274C313.223 146.2 313.268 146.102 313.298 145.989C313.328 145.877 313.342 145.753 313.338 145.629C313.34 145.338 313.292 145.051 313.198 144.809C313.105 144.566 312.972 144.379 312.816 144.273C312.749 144.232 312.677 144.221 312.607 144.24C312.536 144.259 312.47 144.308 312.413 144.383C312.356 144.458 312.311 144.556 312.281 144.668C312.251 144.781 312.237 144.904 312.241 145.028Z" fill="#37474F"/>
<path d="M315.534 145.33L315.438 149.723L313.338 148.417L315.534 145.33Z" fill="#F28F8F"/>
<path d="M318.828 156.365C320.774 156.562 324.789 156.434 325.417 155.213C325.189 155.813 324.688 156.322 324.013 156.641C322.781 157.271 318.828 157.409 318.828 157.409V156.365Z" fill="#F28F8F"/>
<path d="M331.169 190.351L332.006 187.057L329.809 189.95L331.169 190.351Z" fill="#0C3A4D"/>
<path d="M333.084 189.253C333.969 185.242 335.168 181.3 336.671 177.459C338.742 172.055 336.425 167.389 335.032 166.357C333.638 165.326 326.549 162.899 326.549 162.899C323.985 169.839 323.282 179.135 323.221 186.744L333.084 189.253Z" fill="#0C3A4D"/>
<path opacity="0.4" d="M333.084 189.253C333.969 185.242 335.168 181.3 336.671 177.459C338.742 172.055 336.425 167.389 335.032 166.357C333.638 165.326 326.549 162.899 326.549 162.899C323.985 169.839 323.282 179.135 323.221 186.744L333.084 189.253Z" fill="black"/>
<path d="M336.707 190.699L343.545 192.547C343.736 192.417 343.916 192.272 344.084 192.112C344.084 192.112 340.851 179.527 339.821 175.348C338.791 171.169 338 168.295 335.222 166.193C330.228 169.466 332.539 178.561 332.539 178.561L336.707 190.699Z" fill="#0C3A4D"/>
<path opacity="0.4" d="M336.707 190.699L343.545 192.547C343.736 192.417 343.916 192.272 344.084 192.112C344.084 192.112 340.851 179.527 339.821 175.348C338.791 171.169 338 168.295 335.222 166.193C330.228 169.466 332.539 178.561 332.539 178.561L336.707 190.699Z" fill="black"/>
<path d="M435.224 110.929V87.3543C435.295 82.7845 432.352 78.2028 426.383 74.7279C414.611 67.8375 395.469 67.8375 383.673 74.7279C377.705 78.2028 374.761 82.7845 374.832 87.3543V110.846C374.832 115.392 377.728 123.52 383.673 126.983C395.445 133.874 414.587 133.874 426.383 126.983C432.269 123.556 435.213 115.487 435.224 110.977V110.929Z" fill="#EBEBEB"/>
<path d="M405.028 58.5796L355.065 87.6792L405.028 116.779L454.992 87.6792L405.028 58.5796Z" fill="#F8F8F8"/>
<path d="M429.735 102.572L404.736 88.3468C404.633 88.2879 404.519 88.2499 404.402 88.2348C404.284 88.2198 404.164 88.2281 404.049 88.2591C403.935 88.2902 403.827 88.3435 403.733 88.416C403.639 88.4885 403.56 88.5787 403.501 88.6815C403.442 88.7843 403.404 88.8978 403.389 89.0153C403.374 89.1328 403.382 89.2521 403.413 89.3665C403.445 89.4808 403.498 89.5879 403.571 89.6816C403.643 89.7754 403.734 89.8539 403.837 89.9128L427.949 103.6L429.735 102.572Z" fill="#BAD2DE"/>
<path d="M355.064 87.1299V89.1851L405.577 117.877V115.833L355.064 87.1299Z" fill="#E6E6E6"/>
<path d="M454.991 87.1294V89.1847L404.478 117.876V115.833L454.991 87.1294Z" fill="#F0F0F0"/>
<path d="M430.833 102.732L429.154 103.601C428.9 103.227 428.546 102.916 428.125 102.697L427.539 102.391L429.453 101.405C430.019 101.747 430.491 102.201 430.833 102.732Z" fill="#BAD2DE"/>
<path d="M374.83 101.405L405.069 122.269L435.226 101.453L405.069 119.136L374.83 101.405Z" fill="#BAD2DE"/>
<path d="M432.913 127.759C432.457 127.976 431.952 128.089 431.439 128.089C430.926 128.089 430.421 127.976 429.965 127.759L427.538 142.186C427.538 144.912 435.225 144.912 435.225 142.186L432.913 127.759Z" fill="#F8F8F8"/>
<path d="M433.029 135.446L433.593 143.133C433.778 143.09 433.957 143.033 434.127 142.963L433.029 135.446Z" fill="#EBEBEB"/>
<path d="M430.095 144.23L430.833 131.053L429.735 144.038C429.852 144.111 429.972 144.175 430.095 144.23Z" fill="#EBEBEB"/>
<path d="M431.482 144.23H431.931L431.695 134.348L431.482 144.23Z" fill="#EBEBEB"/>
<path d="M432.47 128.858C431.996 128.844 431.536 128.665 431.154 128.345C430.991 128.208 430.881 128.005 430.845 127.779C430.809 127.552 430.851 127.318 430.961 127.125C431.078 126.935 431.255 126.804 431.455 126.761C431.655 126.718 431.861 126.765 432.031 126.893C432.133 127.005 432.269 127.068 432.411 127.068C432.553 127.068 432.689 127.005 432.791 126.893C432.874 126.808 432.972 126.744 433.078 126.705C433.184 126.666 433.296 126.653 433.407 126.666C433.518 126.679 433.625 126.718 433.722 126.781C433.818 126.844 433.903 126.929 433.969 127.031C434.035 127.133 434.082 127.25 434.107 127.374C434.132 127.498 434.133 127.626 434.112 127.751C434.091 127.876 434.047 127.994 433.984 128.098C433.92 128.203 433.838 128.291 433.743 128.357C433.375 128.671 432.93 128.846 432.47 128.858Z" fill="#BAD2DE"/>
<path d="M432.122 126.66C432.007 126.661 431.892 126.64 431.785 126.597C431.678 126.554 431.581 126.49 431.499 126.409C431.416 126.328 431.351 126.232 431.307 126.126C431.262 126.019 431.239 125.905 431.239 125.79V105.247C431.238 104.785 431.116 104.331 430.884 103.931C430.653 103.531 430.32 103.199 429.92 102.967L404.917 88.7464C404.719 88.6329 404.573 88.4461 404.511 88.2262C404.45 88.0063 404.477 87.771 404.588 87.5711C404.643 87.4719 404.717 87.3845 404.807 87.3142C404.896 87.2438 404.998 87.1918 405.108 87.1612C405.217 87.1306 405.332 87.122 405.445 87.1358C405.558 87.1497 405.667 87.1858 405.765 87.2421L430.827 101.486C431.495 101.871 432.05 102.424 432.437 103.09C432.823 103.757 433.027 104.512 433.029 105.282V125.825C433.025 125.94 432.998 126.052 432.95 126.156C432.902 126.259 432.833 126.353 432.749 126.43C432.665 126.508 432.566 126.568 432.459 126.607C432.351 126.647 432.237 126.664 432.122 126.66Z" fill="#FAFAFA"/>
<path d="M429.734 125.576C429.732 125.141 429.858 124.715 430.098 124.353C430.338 123.99 430.68 123.706 431.081 123.538C431.482 123.369 431.924 123.324 432.351 123.407C432.778 123.491 433.17 123.699 433.479 124.005C433.787 124.312 433.998 124.703 434.084 125.13C434.17 125.556 434.127 125.998 433.961 126.4C433.795 126.802 433.514 127.146 433.152 127.388C432.791 127.63 432.366 127.759 431.931 127.759C431.643 127.761 431.358 127.706 431.091 127.597C430.825 127.488 430.583 127.328 430.379 127.125C430.174 126.922 430.012 126.681 429.902 126.415C429.791 126.149 429.734 125.864 429.734 125.576Z" fill="#F8F8F8"/>
<path d="M434.086 125.103C433.994 125.275 433.854 125.429 433.675 125.557C433.497 125.684 433.284 125.781 433.051 125.841C432.818 125.9 432.571 125.922 432.326 125.903C432.081 125.884 431.844 125.826 431.632 125.732C431.361 125.61 431.137 125.436 430.982 125.229C430.826 125.022 430.744 124.788 430.744 124.55C430.744 124.312 430.826 124.077 430.982 123.87C431.137 123.663 431.361 123.49 431.632 123.367C431.22 123.41 430.832 123.54 430.514 123.742C430.196 123.945 429.96 124.211 429.835 124.51C429.711 124.809 429.701 125.129 429.808 125.432C429.915 125.735 430.135 126.009 430.44 126.221C430.746 126.434 431.126 126.577 431.536 126.634C431.945 126.691 432.368 126.658 432.754 126.541C433.14 126.424 433.475 126.227 433.718 125.972C433.961 125.717 434.103 125.416 434.127 125.103H434.086Z" fill="#EBEBEB"/>
<path d="M88.004 114.581L97.0122 109.101L92.0594 107.993L87.13 111.626L88.004 114.581Z" fill="#BAD2DE"/>
<path d="M103.601 66.8803C103.601 52.5574 112.357 45.9092 123.114 52.1277L139.005 61.3183C149.726 67.5368 158.505 84.2946 158.505 98.6652C158.505 99.2501 158.505 99.8588 158.505 100.372C158.505 100.694 158.505 100.969 158.505 101.279C158.505 101.589 158.446 101.84 158.422 102.115C158.398 102.389 158.35 102.747 158.303 103.058C158.063 104.754 157.64 106.419 157.04 108.023C156.79 108.62 156.528 109.216 156.242 109.718C156.11 109.995 155.959 110.262 155.789 110.517L155.634 110.768C155.369 111.196 155.062 111.595 154.717 111.962C154.527 112.176 154.348 112.403 154.145 112.606L153.526 113.203C153.312 113.37 153.109 113.573 152.883 113.74C152.669 113.913 152.442 114.068 152.204 114.206L151.501 114.611C150.591 115.104 149.604 115.439 148.582 115.602C148.504 115.583 148.422 115.583 148.344 115.602C148.07 115.602 147.82 115.662 147.546 115.662C147.257 115.686 146.966 115.686 146.676 115.662C145.911 115.67 145.147 115.586 144.401 115.411C143.955 115.322 143.514 115.211 143.079 115.077C141.687 114.65 140.351 114.057 139.1 113.31L123.209 104.12C122.12 103.486 121.077 102.776 120.088 101.995C120.088 101.804 120.088 101.637 120.088 101.458C120.088 101.279 120.088 100.897 120.088 100.682C120.088 100.205 120.088 99.7156 120.088 99.2262C120.124 87.0159 112.786 72.6095 103.601 66.8803Z" fill="#BAD2DE"/>
<path d="M101.404 56.5402L110.189 50.8921C110.133 50.8921 109.294 57.718 109.294 57.718L102.776 58.5791L101.404 56.5402Z" fill="#BAD2DE"/>
<path d="M143.131 117.876L151.917 113.35L146.628 111.288L143.131 117.876Z" fill="#BAD2DE"/>
<path d="M138.76 112.635C138.818 116.208 139.919 119.678 141.914 122.582C142.284 123.088 141.717 123.534 141.301 123.305C139.413 122.283 137.74 120.877 136.379 119.17C133.766 115.947 131.938 112.113 131.053 107.994L138.76 112.635Z" fill="#BAD2DE"/>
<path d="M142.033 123.401L132.891 128.856C132.891 128.856 127.759 124.367 127.759 115.279L137.68 114.582C137.68 114.582 137.916 120.502 142.033 123.401Z" fill="#BAD2DE"/>
<path d="M117.876 97.4265C117.876 97.872 117.876 98.3016 117.876 98.7153C117.876 98.954 117.876 99.1569 117.876 99.3836C117.876 99.6104 117.876 99.8013 117.805 100.016C117.735 100.231 117.805 100.493 117.723 100.732C117.587 101.789 117.343 102.829 116.995 103.835C116.944 104.018 116.881 104.198 116.807 104.372C116.721 104.612 116.623 104.847 116.513 105.076C116.421 105.298 116.315 105.513 116.195 105.72C116.102 105.928 115.992 106.128 115.866 106.317L115.749 106.508C115.542 106.837 115.314 107.152 115.067 107.451C114.939 107.625 114.797 107.788 114.644 107.94L114.198 108.382C114.045 108.527 113.884 108.662 113.716 108.787C113.555 108.914 113.386 109.029 113.21 109.133C113.034 109.241 112.87 109.348 112.682 109.444L112.141 109.706L111.577 109.909C111.233 110.015 110.884 110.102 110.531 110.172H110.355C110.159 110.19 109.962 110.19 109.767 110.172C109.556 110.196 109.343 110.196 109.132 110.172C108.627 110.171 108.123 110.119 107.628 110.017C107.231 109.948 106.839 109.857 106.453 109.742C105.421 109.421 104.431 108.976 103.503 108.417L91.751 101.52C90.7026 100.905 89.7148 100.19 88.8013 99.3836C88.4722 99.0972 88.1431 98.7869 87.8141 98.4767C87.2217 97.9163 86.6606 97.3226 86.1335 96.6985L85.3814 96.0064C85.1816 95.7677 84.9936 95.5171 84.7938 95.2665C84.7451 95.1798 84.6859 95.0996 84.6175 95.0278C83.835 93.9772 83.113 92.8814 82.4551 91.7461C82.2788 91.4477 82.1143 91.1375 81.938 90.8272C81.7617 90.5169 81.5972 90.2066 81.4327 89.8844C81.2682 89.5622 81.1154 89.24 80.9509 88.9297L80.5043 87.9512C80.3515 87.629 80.2105 87.2829 80.0694 86.9726C79.8227 86.3998 79.5993 85.7792 79.3996 85.2303C79.3996 85.1229 79.3173 85.0155 79.282 84.9081C79.1528 84.5739 79.047 84.2398 78.9412 83.9057C78.7297 83.2612 78.5416 82.6168 78.3536 81.9485C77.9401 80.3801 77.63 78.7854 77.4252 77.1751C77.4252 76.9006 77.3664 76.6381 77.3312 76.3636C77.2959 76.0891 77.3312 75.8982 77.2724 75.6595C77.2137 75.4208 77.2724 75.1822 77.2724 74.9435C77.2724 74.498 77.2724 74.0564 77.2724 73.6188C77.2724 62.8785 83.7479 57.8545 91.7158 62.5205L103.468 69.4301C111.401 74.0723 117.876 86.6385 117.876 97.4265Z" fill="#BAD2DE"/>
<path d="M72.8548 67.0642L81.6256 61.8735L84.9331 64.281L74.7025 70.6577L72.8548 67.0642Z" fill="#BAD2DE"/>
<path d="M103.6 114.583L112.385 109.118L105.498 106.896L103.6 114.583Z" fill="#BAD2DE"/>
<path d="M93.3533 102.502C93.3533 104.542 91.0662 107.321 88.4474 107.844C88.0929 107.921 88.1844 108.787 88.6075 109.119C90.1682 110.064 91.9687 110.396 93.7193 110.062C94.8563 110.024 95.9637 109.65 96.9283 108.978C97.8929 108.306 98.6798 107.36 99.2085 106.238L93.3533 102.502Z" fill="#0C3A4D"/>
<path d="M114.229 57.6074L130.177 66.7354C140.928 72.9035 149.721 89.5256 149.721 103.768C149.721 104.36 149.721 104.952 149.721 105.473C149.721 105.793 149.721 106.065 149.721 106.373C149.721 106.681 149.661 106.917 149.625 107.19C149.589 107.462 149.553 107.841 149.506 108.137C149.29 109.813 148.889 111.46 148.311 113.05C148.06 113.654 147.797 114.234 147.511 114.743C147.379 115.014 147.227 115.275 147.057 115.524C147.007 115.611 146.951 115.694 146.889 115.773C146.63 116.22 146.326 116.641 145.982 117.028C145.79 117.241 145.599 117.478 145.396 117.667L144.787 118.259C144.572 118.425 144.357 118.626 144.142 118.792C143.925 118.961 143.698 119.115 143.461 119.254L142.744 119.656C141.835 120.143 140.849 120.475 139.829 120.639C139.752 120.613 139.668 120.613 139.59 120.639C139.316 120.639 139.053 120.639 138.79 120.639C138.5 120.656 138.208 120.656 137.918 120.639C137.15 120.642 136.385 120.559 135.636 120.39C135.189 120.302 134.746 120.191 134.31 120.059C132.918 119.631 131.579 119.047 130.32 118.318C130.379 121.825 131.522 125.23 133.593 128.074C133.976 128.583 133.39 129.021 132.948 128.796C130.993 127.791 129.263 126.406 127.859 124.723C125.165 121.558 123.276 117.799 122.352 113.76L123.547 114.411L114.432 109.202C113.55 108.698 112.7 108.141 111.887 107.533C111.958 107.232 112.009 106.928 112.043 106.621C112.043 106.42 112.114 106.124 112.138 105.816C112.182 105.554 112.21 105.289 112.222 105.023V104.881C112.234 104.684 112.234 104.486 112.222 104.289C112.222 103.839 112.222 103.366 112.222 102.892C112.222 90.9108 105.054 77.4024 95.8318 72.1103L94.8164 71.5184C94.9119 57.8205 103.597 51.5221 114.229 57.6074Z" fill="#F0F0F0"/>
<path d="M81.7374 68.0168L93.5168 74.9093C101.491 79.5839 107.994 92.1407 107.994 102.921C107.994 103.362 107.994 103.791 107.994 104.209C107.994 104.626 107.994 104.65 107.994 104.876C107.994 105.103 107.994 105.294 107.935 105.508C107.916 105.744 107.884 105.979 107.841 106.212C107.711 107.273 107.466 108.317 107.11 109.324C107.065 109.509 107.002 109.689 106.922 109.861C106.842 110.097 106.747 110.328 106.639 110.553C106.545 110.777 106.439 110.996 106.321 111.208C106.224 111.417 106.11 111.616 105.979 111.805C105.952 111.872 105.916 111.936 105.873 111.996C105.65 112.329 105.426 112.639 105.19 112.938C105.054 113.109 104.909 113.272 104.754 113.426L104.307 113.868C104.154 114.013 103.993 114.148 103.824 114.273C103.668 114.402 103.503 114.518 103.329 114.619C103.152 114.726 102.987 114.834 102.799 114.929L102.257 115.191L101.692 115.394C101.347 115.5 100.997 115.587 100.643 115.656H100.467C100.271 115.675 100.074 115.675 99.8777 115.656C99.6628 115.687 99.4447 115.687 99.2298 115.656C98.7238 115.659 98.2187 115.611 97.722 115.513C97.3247 115.444 96.9314 115.353 96.5441 115.239C95.5085 114.923 94.5154 114.478 93.5875 113.915L89.6061 111.602C89.0538 112.641 88.2399 113.514 87.2469 114.132C86.2539 114.749 85.1171 115.09 83.952 115.12C82.1474 115.428 80.2931 115.113 78.6866 114.225C78.2625 113.951 78.1565 113.14 78.5335 113.033C81.231 112.544 83.575 109.944 83.575 108.036L81.7846 106.987C80.7355 106.37 79.7457 105.656 78.828 104.853C78.4981 104.566 78.1683 104.256 77.8503 103.946C77.2526 103.386 76.6863 102.793 76.154 102.169C75.942 101.919 75.73 101.681 75.5179 101.394C75.3059 101.108 75.1292 100.917 74.929 100.667L74.7523 100.428C73.9679 99.3786 73.2443 98.2836 72.5849 97.1491L72.0548 96.2309C71.8781 95.9209 71.7132 95.6108 71.5483 95.2888C71.3834 94.9669 71.242 94.6449 71.0771 94.3349L70.6177 93.357C70.4646 93.0231 70.335 92.6892 70.1937 92.3792C69.9463 91.8068 69.7107 91.1867 69.5105 90.6382L69.4045 90.3162C69.2749 89.9823 69.1571 89.6484 69.0629 89.3145C68.8391 88.6587 68.6623 88.0266 68.4621 87.3588C68.0476 85.7915 67.7368 84.198 67.5315 82.5889C67.5315 82.3146 67.4727 82.0523 67.4491 81.778C67.4255 81.5038 67.4491 81.301 67.3902 81.0745C67.3313 80.8479 67.3902 80.5975 67.3902 80.359C67.3902 79.9178 67.3902 79.4646 67.3902 79.0234C67.2606 68.3268 73.7628 63.3542 81.7374 68.0168Z" fill="#F0F0F0"/>
</g>
<defs>
<filter id="filter0_d" x="0.379515" y="0.380003" width="576.502" height="530.382" filterUnits="userSpaceOnUse" color-interpolation-filters="sRGB">
<feFlood flood-opacity="0" result="BackgroundImageFix"/>
<feColorMatrix in="SourceAlpha" type="matrix" values="0 0 0 0 0 0 0 0 0 0 0 0 0 0 0 0 0 0 127 0"/>
<feOffset dx="6.58859" dy="6.58859"/>
<feGaussianBlur stdDeviation="16.4715"/>
<feColorMatrix type="matrix" values="0 0 0 0 0 0 0 0 0 0 0 0 0 0 0 0 0 0 0.15 0"/>
<feBlend mode="normal" in2="BackgroundImageFix" result="effect1_dropShadow"/>
<feBlend mode="normal" in="SourceGraphic" in2="effect1_dropShadow" result="shape"/>
</filter>
</defs>
</svg>
