<svg width="98" height="112" viewBox="0 0 98 112" fill="none" xmlns="http://www.w3.org/2000/svg">
<path d="M88 0H10C7.35404 0.0029896 4.87098 1.12223 3 3C1.12902 4.87777 0.00297219 7.34444 0 10V102C0.00297275 104.656 1.12902 107.122 3 109C4.87098 110.878 7.35404 111.997 10 112H88C90.646 111.997 93.129 110.878 95 109C96.871 107.122 97.997 104.656 98 102V10C97.997 7.34444 96.871 4.87777 95 3C93.129 1.12223 90.646 0.0029896 88 0Z" fill="#8E8E8E"/>
<path d="M89 3H10C8.10051 3.00211 6.34314 3.66573 5 5C3.65686 6.33427 3.00213 8.11306 3 10V102C3.00213 103.887 3.65686 105.666 5 107C6.34314 108.334 8.10051 108.998 10 109H89C90.8995 108.998 92.6569 108.334 94 107C95.3431 105.666 95.9979 103.887 96 102V10C95.9979 8.11308 95.3431 6.33426 94 5C92.6569 3.66574 90.8995 3.00214 89 3Z" fill="white"/>
<path d="M76.9999 24.9997H47.9999C47.5565 24.9997 46.3135 25.2409 45.9999 24.9997C45.6864 24.7586 45.9999 23.3407 45.9999 22.9997C45.9999 22.6588 45.6864 22.2409 45.9999 21.9997C46.3135 21.7586 47.5565 21.9997 47.9999 21.9997H76.9999C77.2196 21.9996 77.7969 21.9352 77.9999 21.9997C78.203 22.0643 78.8445 21.8803 78.9999 21.9997C79.1554 22.1191 78.9158 22.8437 78.9999 22.9997C79.0841 23.1558 78.9999 22.8308 78.9999 22.9997C78.9999 23.1687 79.0841 23.8437 78.9999 23.9997C78.9158 24.1558 79.1554 24.8803 78.9999 24.9997C78.8445 25.1191 78.203 24.9352 77.9999 24.9997C77.7969 25.0643 77.2196 24.9999 76.9999 24.9997Z" fill="#6C63FF"/>
<path d="M82.9999 29.9997H47.9999C47.5683 29.9997 46.3051 30.2409 45.9999 29.9997C45.6947 29.7586 45.9999 28.3407 45.9999 27.9997C45.9999 27.6588 45.6947 27.2409 45.9999 26.9997C46.3051 26.7586 47.5683 26.9997 47.9999 26.9997H82.9999C83.4315 26.9997 84.6947 26.7586 84.9999 26.9997C85.3051 27.2409 84.9999 27.6588 84.9999 27.9997C84.9999 28.3407 85.3051 29.7586 84.9999 29.9997C84.6947 30.2409 83.4315 29.9997 82.9999 29.9997Z" fill="#6C63FF"/>
<path d="M42 15.0001H15C14.7864 15.0001 14.1509 14.8494 14 15.0001C13.849 15.1508 14 15.787 14 16.0001V37.0001C14 37.2132 13.849 37.8494 14 38.0001C14.1509 38.1508 14.7864 38 15 38.0001H42C42.2135 38 42.849 38.1508 43 38.0001C43.1509 37.8494 42.9999 37.2132 43 37.0001V16.0001C42.9999 15.787 43.1509 15.1508 43 15.0001C42.849 14.8494 42.2135 15.0001 42 15.0001Z" fill="#8E8E8E"/>
<path d="M21.0001 27.0003C21.0105 28.7322 20.1232 30.7157 19.0001 32.0003C17.8888 33.2617 16.6696 34.3464 15.0001 34.0003C13.4627 33.6815 11.8442 31.6815 12.0001 30.0003C12.0259 29.6361 11.8284 29.3193 12.0001 29.0003C12.1717 28.6812 12.7145 29.2149 13.0001 29.0003C13.2856 28.7856 13.6537 28.0706 14.0001 28.0003C14.3465 27.9299 14.6572 27.9133 15.0001 28.0003C16.4605 28.3923 17.217 30.9784 16.0001 32.0003C15.7081 32.2455 14.7053 31.2477 15.0001 31.0003C15.8045 30.3248 15.9711 29.3709 15.0001 29.0003C13.8696 28.5688 13.0814 29.8048 13.0001 31.0003C12.9037 32.4176 13.7127 32.749 15.0001 33.0003C16.3927 33.2721 18.0564 33.0179 19.0001 32.0003C20.0816 30.8186 20.0133 28.6274 20.0001 27.0003C20.0027 26.9212 19.9451 27.0552 20.0001 27.0003C20.055 26.9453 20.9236 27.0003 21.0001 27.0003C20.9451 26.9453 21.0765 27.0003 21.0001 27.0003C20.9974 26.9212 21.055 27.0552 21.0001 27.0003Z" fill="#2F2E41"/>
<path d="M28 31C34.0751 31 39 26.0751 39 20C39 13.9249 34.0751 9 28 9C21.9249 9 17 13.9249 17 20C17 26.0751 21.9249 31 28 31Z" fill="#6C63FF"/>
<path d="M27 25C27.7792 24.9787 28.4838 24.3702 29 24C29.1463 23.8891 28.9139 24.1607 29 24C29.0861 23.8393 29.9898 23.1812 30 23C30.0091 22.8893 30.0419 23.1032 30 23C29.9581 22.8968 29.0841 23.0743 29 23C28.6573 22.7159 28.4019 22.8191 28 23V18H29L28 22C28.5461 21.8424 29.6534 21.7127 30 22C30.1331 22.114 29.9324 22.8398 30 23C30.0676 23.1602 30.012 22.827 30 23C29.9878 23.2435 30.1158 23.7843 30 24C29.8842 24.2157 29.1977 23.8524 29 24C28.3367 24.4758 27.6926 24.9809 27 25Z" fill="#2F2E41"/>
<path d="M22 38C22.8425 37.445 24.0459 37.3031 25 37C24.909 36.664 24.9062 36.3352 25 36C25.1266 35.5766 24.6544 34.2605 25 34C25.3456 33.7395 26.573 33.994 27 34H29C29.4278 33.9944 30.6538 33.7392 31 34C31.3462 34.2609 30.8725 35.5761 31 36C31.0938 36.3345 31.0911 36.6648 31 37C31.9539 37.3035 33.1573 37.4454 34 38H22Z" fill="#2F2E41"/>
<path d="M41 17.0002C40.7969 16.7772 40.2823 16.1349 40 16.0002C39.7524 15.883 40.2794 16.0008 40 16.0002C39.6163 16.0044 38.3084 15.7933 38 16.0002C37.152 16.5438 37 17.6428 37 19.0002C37 20.7029 37.7979 22.7547 39 23.0002C39.1224 23.025 39.8745 22.9999 40 23.0002C41.3771 23.0002 42 21.8747 42 20.0002C42 18.9128 41.5854 17.6212 41 17.0002Z" fill="#3F3D56"/>
<path d="M17 16.0002C16.7215 15.8447 17.3278 16.0028 17 16.0002C16.7206 16.0009 16.2476 15.8839 16 16.0002C15.7177 16.1339 15.2031 16.7789 15 17.0002C14.4167 17.6167 14 18.9227 14 20.0002C14 21.4544 15.0416 22.5261 16 23.0002C16.2623 23.1324 16.6993 22.9984 17 23.0002C17.0669 23.0002 16.9337 23.0077 17 23.0002C18.2834 22.8615 19 21.7692 19 20.0002C19 18.5835 17.9188 16.4987 17 16.0002Z" fill="#3F3D56"/>
<path d="M15.9999 22.0003C16.0487 22.0003 15.9565 22.0227 15.9999 22.0003C16.0433 21.9779 15.9714 22.0401 15.9999 22.0003C15.9926 22.0488 16.0284 21.9605 15.9999 22.0003C16.0155 22.0468 16.0071 21.9518 15.9999 22.0003C15.4122 20.2444 15.752 17.836 15.9999 16.0003C16.2477 14.1646 16.9679 12.5354 17.9999 11.0003C19.0319 9.46516 20.3975 7.91677 21.9999 7.0003C23.6023 6.08383 25.1592 6.1082 26.9999 6.0003C28.8406 5.8924 31.3023 6.27727 32.9999 7.0003C34.6975 7.72333 35.7972 8.59616 36.9999 10.0003C38.2026 11.4044 39.5413 13.206 39.9999 15.0003C40.4585 16.7946 40.3804 18.1876 39.9999 20.0003C39.9831 20.0805 39.9554 19.9316 39.9999 20.0003C40.0444 20.0689 39.9201 20.9834 39.9999 21.0003C40.0797 21.0172 40.9316 21.045 40.9999 21.0003C41.0682 20.9556 40.9831 20.0805 40.9999 20.0003C41.4002 18.0945 41.482 16.8869 40.9999 15.0003C40.5178 13.1137 39.2644 10.4767 37.9999 9.0003C36.7354 7.52391 34.7847 6.76052 32.9999 6.0003C31.2151 5.24007 28.9352 4.8868 26.9999 5.0003C25.0646 5.11379 23.6846 6.03661 21.9999 7.0003C20.3152 7.96399 18.0848 9.38613 16.9999 11.0003C15.915 12.6145 15.2602 14.0702 14.9999 16.0003C14.7396 17.9304 15.3817 20.1542 15.9999 22.0003C15.9476 21.9626 16.0205 22.0616 15.9999 22.0003C15.9355 22.0003 16.0522 22.038 15.9999 22.0003Z" fill="#3F3D56"/>
<path d="M34 12.9998C34.415 13.6295 34.4373 14.4569 34 14.9998C33.4309 15.7063 31.7879 16.131 31 15.9998C30.1158 15.8527 28.8951 15.6896 28 15.9998C27.237 16.2643 26.7926 16.8067 26 16.9998C25.297 17.1712 24.2464 16.8326 24 15.9998C23.8815 15.5997 24.8822 15.6018 25 15.9998C25.1594 16.5386 25.6057 16.149 26 15.9998C26.632 15.7607 27.3788 15.2777 28 14.9998C28.7323 14.6723 29.2543 14.8132 30 14.9998C30.7027 15.1757 32.2998 15.3284 33 14.9998C33.518 14.7567 33.3726 14.5652 33 13.9998C32.7762 13.6605 33.7785 12.6639 34 12.9998Z" fill="#2F2E41"/>
<path d="M77 51.0001H38C37.7826 51.0001 37.2008 51.0648 37 51.0001C36.7991 50.9355 36.1537 51.1195 36 51.0001C35.8462 50.8807 36.0831 50.1561 36 50.0001C35.9168 49.8441 36 49.169 36 49.0001C36 48.8313 35.9168 49.1561 36 49.0001C36.0831 48.8441 35.8462 48.1195 36 48.0001C36.1537 47.8807 36.7991 48.0648 37 48.0001C37.2008 47.9355 37.7826 48.0001 38 48.0001H77C77.4387 48.0005 78.6899 47.759 79 48.0001C79.31 48.2412 79 48.6594 79 49.0001C79 49.3409 79.31 50.759 79 51.0001C78.6899 51.2412 77.4387 50.9998 77 51.0001Z" fill="#8E8E8E"/>
<path d="M83.9999 56.9999H37.9999C37.7809 57.0001 37.2023 57.0706 36.9999 56.9999C36.7975 56.9292 36.1548 57.1308 35.9999 56.9999C35.8449 56.869 36.0838 56.171 35.9999 55.9999C35.916 55.8288 35.9999 55.1851 35.9999 54.9999C35.9999 54.8147 35.916 55.171 35.9999 54.9999C36.0838 54.8288 35.8449 54.1308 35.9999 53.9999C36.1548 53.869 36.7975 54.0706 36.9999 53.9999C37.2023 53.9292 37.7809 53.9997 37.9999 53.9999H83.9999C84.2189 53.9997 84.7975 53.9292 84.9999 53.9999C85.2023 54.0706 85.8449 53.869 85.9999 53.9999C86.1548 54.1308 85.916 54.8288 85.9999 54.9999C86.0838 55.171 85.9999 54.8147 85.9999 54.9999C85.9999 55.1851 86.0838 55.8288 85.9999 55.9999C85.916 56.171 86.1548 56.869 85.9999 56.9999C85.8449 57.1308 85.2023 56.9292 84.9999 56.9999C84.7975 57.0706 84.2189 57.0001 83.9999 56.9999Z" fill="#8E8E8E"/>
<path d="M77 70.9997H38C37.5627 70.9997 36.3092 71.2408 36 70.9997C35.6908 70.7586 36 70.3407 36 69.9997C36 69.6588 35.6908 68.2408 36 67.9997C36.3092 67.7586 37.5627 67.9997 38 67.9997H77C77.4373 67.9997 78.6908 67.7586 79 67.9997C79.3092 68.2408 79 69.6588 79 69.9997C79 70.3407 79.3092 70.7586 79 70.9997C78.6908 71.2408 77.4373 70.9997 77 70.9997Z" fill="#8E8E8E"/>
<path d="M84 76.9997H38C37.561 76.9997 36.3105 77.2408 36 76.9997C35.6896 76.7586 36 75.3407 36 74.9997C36 74.6588 35.6896 74.2408 36 73.9997C36.3105 73.7586 37.561 73.9997 38 73.9997H84C84.4391 73.9997 85.6896 73.7586 86 73.9997C86.3105 74.2408 86 74.6588 86 74.9997C86 75.3407 86.3105 76.7586 86 76.9997C85.6896 77.2408 84.4391 76.9997 84 76.9997Z" fill="#8E8E8E"/>
<path d="M22 60C25.866 60 29 56.866 29 53C29 49.134 25.866 46 22 46C18.134 46 15 49.134 15 53C15 56.866 18.134 60 22 60Z" fill="#8E8E8E"/>
<path d="M22 80C25.866 80 29 76.866 29 73C29 69.134 25.866 66 22 66C18.134 66 15 69.134 15 73C15 76.866 18.134 80 22 80Z" fill="#8E8E8E"/>
<path d="M77 91.9997H38C37.5627 91.9997 36.3092 92.2408 36 91.9997C35.6908 91.7586 36 91.3407 36 90.9997C36 90.6588 35.6908 89.2408 36 88.9997C36.3092 88.7586 37.5627 88.9997 38 88.9997H77C77.4373 88.9997 78.6908 88.7586 79 88.9997C79.3092 89.2408 79 90.6588 79 90.9997C79 91.3407 79.3092 91.7586 79 91.9997C78.6908 92.2408 77.4373 91.9997 77 91.9997Z" fill="#8E8E8E"/>
<path d="M84 96.9997H38C37.561 96.9997 36.3105 97.2408 36 96.9997C35.6896 96.7586 36 95.3407 36 94.9997C36 94.6588 35.6896 94.2408 36 93.9997C36.3105 93.7586 37.561 93.9997 38 93.9997H84C84.4391 93.9997 85.6896 93.7586 86 93.9997C86.3105 94.2408 86 94.6588 86 94.9997C86 95.3407 86.3105 96.7586 86 96.9997C85.6896 97.2408 84.4391 96.9997 84 96.9997Z" fill="#8E8E8E"/>
<path d="M22 100C25.866 100 29 96.866 29 93C29 89.134 25.866 86 22 86C18.134 86 15 89.134 15 93C15 96.866 18.134 100 22 100Z" fill="#8E8E8E"/>
</svg>
