<svg width="171" height="111" viewBox="0 0 171 111" fill="none" xmlns="http://www.w3.org/2000/svg">
<path d="M65 67.9999C67.701 77.8542 93.8595 90.9928 115 75.9999C124.832 69.0264 122.138 63.1385 128 52.9999C131.494 46.9571 137.158 41.0713 137 33.9999C136.865 27.8957 134.268 24.903 130 21.9999C120.402 15.471 104.72 12.9177 96 30.9999C87.2799 49.0821 58.0369 42.5847 65 67.9999Z" fill="url(#paint0_linear)"/>
<path d="M100 26C88.2967 32.7102 77.061 40.9809 65 42C52.5578 43.054 52.344 38.4589 54 33C55.6562 27.5411 64.1253 16.207 81 15C97.8792 13.7922 110.952 19.7193 100 26Z" fill="url(#paint1_linear)"/>
<path d="M86.0001 14.0001L83.0001 20.0001V21.0001C82.5855 21.7316 82.3227 22.5098 83.0001 23.0001L88.0001 26.0001C88.0782 26.0561 87.935 25.9353 88.0001 26.0001C88.4415 26.4627 88.2579 27.404 88.0001 28.0001C86.5281 31.537 85.9798 35.1741 86.0001 39.0001C85.9977 39.1549 86.0414 39.851 86.0001 40.0001C85.8397 40.5506 85.5725 40.8534 85.0001 41.0001L80.0001 42.0001C79.3842 42.157 79.1334 42.4087 79.0001 43.0001C78.9652 43.1811 78.9738 43.8012 79.0001 44.0001L80.0001 51.0001C80.1155 51.8569 81.1229 52.0481 82.0001 52.0001H88.0001C88.3096 51.9846 88.7306 51.8478 89.0001 52.0001C89.2696 52.1525 89.8549 52.7275 90.0001 53.0001C90.4415 53.7972 90.4823 54.2349 91.0001 55.0001C91.9521 56.4084 92.8122 57.7824 94.0001 59.0001C94.4874 59.4998 95.2939 60.3705 95.0001 61.0001L92.0001 67.0001C91.6404 67.7532 91.2615 68.5808 92.0001 69.0001L98.0001 73.0001C98.7507 73.4223 100.493 72.6966 101 72.0001L104 67.0001C104.421 66.4229 105.328 66.7815 106 67.0001C108.858 67.8784 112.006 68.0307 115 68.0001C115.371 67.9994 115.708 67.773 116 68.0001C116.292 68.2273 116.911 68.642 117 69.0001L118 75.0001C118.101 75.4025 118.655 75.7682 119 76.0001C119.345 76.2321 119.588 76.0577 120 76.0001L127 75.0001C127.832 74.8853 128.045 73.826 128 73.0001V66.0001C127.965 65.3635 128.441 64.3141 129 64.0001C129.695 63.6134 130.34 63.4443 131 63.0001C132.235 62.1732 133.906 61.0039 135 60.0001C135.485 59.5479 135.4 59.7131 136 60.0001L143 63.0001C143.376 63.1736 144.605 63.1248 145 63.0001C145.395 62.8755 145.793 63.3575 146 63.0001L149 56.0001C149.37 55.3493 149.525 54.5133 149 54.0001C148.946 53.9485 149.069 54.0429 149 54.0001L143 50.0001C142.462 49.6133 141.852 48.6422 142 48.0001C142.011 47.9441 141.978 48.0546 142 48.0001C142.056 47.835 141.96 48.1746 142 48.0001C142.617 46.0428 143.815 44.0434 144 42.0001C144.05 41.3164 144.32 40.1614 145 40.0001L151 39.0001C151.832 38.7963 152.118 37.8468 152 37.0001V35.0001L151 30.0001C150.889 29.1499 149.864 27.9628 149 28.0001L143 29.0001C142.325 29.0401 141.269 28.6175 141 28.0001C140.282 26.3455 140.013 24.4942 139 23.0001C138.242 21.8812 136.909 21.0013 136 20.0001L137 19.0001L139 14.0001C139.299 13.3755 139.482 12.4632 139 12.0001C138.9 11.8992 139.126 11.0673 139 11.0001L132 8.00013C131.265 7.58733 130.498 7.33113 130 8.00013L128 12.0001C127.564 12.5981 126.689 12.275 126 12.0001C123.151 10.8592 120.064 10.2006 117 10.0001C116.276 9.95476 115.157 9.68262 115 9.00014L114 2.00013C113.904 1.62262 113.324 1.21802 113 1.00013C112.676 0.782253 112.388 0.947945 112 1.00013L105 2.00013C104.156 2.11397 102.95 3.16751 103 4.00013L104 12.0001C104.04 12.672 103.618 12.7139 103 13.0001C101.682 13.6092 100.252 14.1603 99.0001 15.0001C98.3327 15.4476 97.628 16.4993 97.0001 17.0001C96.76 17.1902 96.3045 16.9627 96.0001 17.0001C95.6956 17.0376 95.2794 17.1264 95.0001 17.0001L88.0001 14.0001C87.6206 13.8213 87.4011 13.8761 87.0001 14.0001C86.5991 14.1242 86.211 13.6386 86.0001 14.0001ZM101 46.0001C98.3572 40.9653 98.766 35.8409 101 32.0001C108.853 18.5493 127.379 21.8825 130 37.0001C130.622 40.8783 130.201 45.2423 127 49.0001C119.515 57.693 106.059 55.6203 101 46.0001ZM44.0001 31.0001L40.0001 33.0001C39.456 33.2574 38.8074 33.4367 39.0001 34.0001L40.0001 38.0001C40.0225 38.0647 39.9892 38.9356 40.0001 39.0001C40.0668 39.4511 40.397 39.7579 40.0001 40.0001C37.6811 41.4586 35.5695 42.7603 34.0001 45.0001C33.9346 45.0894 34.0858 45.9299 34.0001 46.0001C33.8382 46.1274 33.2039 45.9687 33.0001 46.0001C32.7963 46.0316 32.1931 46.0726 32.0001 46.0001L29.0001 45.0001C28.7946 44.9235 29.2157 43.9593 29.0001 44.0001C28.7845 44.0409 28.163 44.8538 28.0001 45.0001C27.8989 45.0949 28.0662 44.8785 28.0001 45.0001L25.0001 50.0001C24.7131 50.5473 25.4683 50.669 26.0001 51.0001L30.0001 54.0001C30.1871 54.1179 29.9058 53.8009 30.0001 54.0001C30.0944 54.1994 30.0279 54.7816 30.0001 55.0001C29.9262 55.6482 30.0159 56.348 30.0001 57.0001C29.974 58.212 29.8101 58.8029 30.0001 60.0001C30.0394 60.2379 30.1039 60.7824 30.0001 61.0001C29.8963 61.2178 30.2101 61.8802 30.0001 62.0001L26.0001 64.0001C25.479 64.2924 24.7423 64.453 25.0001 65.0001L27.0001 70.0001C27.2637 70.5537 28.4162 71.1988 29.0001 71.0001L33.0001 69.0001C33.4843 68.8355 33.6985 69.5974 34.0001 70.0001C35.3057 71.6833 37.2398 72.7918 39.0001 74.0001C39.2166 74.1515 38.9236 74.748 39.0001 75.0001C39.0766 75.2523 39.0962 74.7548 39.0001 75.0001L38.0001 79.0001C37.8927 79.2763 37.8944 79.7233 38.0001 80.0001C38.1057 80.277 38.7356 80.8647 39.0001 81.0001L43.0001 83.0001C43.5332 83.2737 44.685 83.5003 45.0001 83.0001L47.0001 78.0001C47.1197 77.8111 47.7983 78.0978 48.0001 78.0001C48.2019 77.9024 48.7769 77.9771 49.0001 78.0001C49.5611 78.059 49.4266 77.989 50.0001 78.0001C51.0623 78.0232 51.9467 77.138 53.0001 77.0001C53.4697 76.9348 54.7686 77.5871 55.0001 78.0001L57.0001 83.0001C57.1478 83.2554 57.7181 82.9111 58.0001 83.0001C58.2821 83.0892 58.7317 83.124 59.0001 83.0001L64.0001 81.0001C64.2348 80.8886 63.881 81.2303 64.0001 81.0001C64.1192 80.7699 64.0452 80.2552 64.0001 80.0001C63.9897 79.9478 64.0228 80.0536 64.0001 80.0001L63.0001 75.0001C62.8459 74.5539 62.6482 74.3142 63.0001 74.0001C63.0298 73.9721 62.9649 74.0232 63.0001 74.0001C63.1009 73.9265 62.9045 73.0854 63.0001 73.0001C64.1691 72.1105 65.0481 71.1171 66.0001 70.0001C66.3121 69.6218 67.5365 69.8158 68.0001 70.0001L72.0001 72.0001C72.5699 72.2218 72.7191 71.5423 73.0001 71.0001L74.0001 70.0001L76.0001 67.0001C76.2863 66.4582 75.5197 65.332 75.0001 65.0001L71.0001 63.0001C70.5896 62.7471 70.9019 61.4705 71.0001 61.0001C71.2648 59.7404 70.9739 59.2869 71.0001 58.0001C71.0202 57.0367 71.117 55.9567 71.0001 55.0001L72.0001 54.0001L75.0001 52.0001C75.2082 51.8837 75.899 52.2154 76.0001 52.0001C76.1012 51.7848 76.0438 51.2338 76.0001 51.0001C75.9836 50.9001 76.0459 51.0907 76.0001 51.0001L74.0001 46.0001C73.7417 45.4582 72.5673 44.8134 72.0001 45.0001L69.0001 46.0001C68.498 46.1702 68.2887 46.4428 68.0001 46.0001C66.8086 44.1672 65.7059 42.3722 64.0001 41.0001C63.5964 40.6773 62.8097 40.4627 63.0001 40.0001L65.0001 35.0001C65.0997 34.7403 65.0994 34.2601 65.0001 34.0001C64.9008 33.7401 65.2479 34.1285 65.0001 34.0001L60.0001 31.0001C59.4605 30.7209 59.315 31.4937 59.0001 32.0001L56.0001 36.0001C55.7462 36.4088 54.4788 37.0862 54.0001 37.0001C52.9789 36.8158 52.0775 37.0224 51.0001 37.0001C50.4257 36.988 49.5736 36.9652 49.0001 37.0001C48.7814 37.0128 49.1933 37.1029 49.0001 37.0001C48.8069 36.8973 48.111 36.1882 48.0001 36.0001L46.0001 31.0001C45.8525 30.7403 45.2854 31.092 45.0001 31.0001C44.7148 30.9083 44.2726 30.8756 44.0001 31.0001ZM40.0001 56.0001C40.5379 51.9789 43.1092 48.327 46.0001 47.0001C56.1411 42.3659 65.7167 52.1033 61.0001 62.0001C59.7609 64.5185 57.4212 67.1182 54.0001 68.0001C46.0398 70.0082 38.9784 63.6869 40.0001 56.0001ZM75.0001 76.0001L73.0001 78.0001C72.8584 78.1424 72.0107 78.8001 72.0001 79.0001C71.9895 79.2002 71.8742 78.8438 72.0001 79.0001L74.0001 82.0001C74.0303 82.0367 73.9772 81.961 74.0001 82.0001C74.1514 82.2784 74.2009 82.7478 74.0001 83.0001C72.8368 84.5012 72.4872 86.1672 72.0001 88.0001C71.9789 88.0739 72.0393 87.9341 72.0001 88.0001C71.925 88.1215 71.1255 87.9313 71.0001 88.0001C70.8747 88.069 71.1433 88.0016 71.0001 88.0001H69.0001C68.8478 87.9989 68.1309 87.9224 68.0001 88.0001C67.8693 88.0779 68.0713 88.8661 68.0001 89.0001C67.9566 89.0859 68.0139 88.9051 68.0001 89.0001L67.0001 92.0001C66.9739 92.2072 66.8788 92.83 67.0001 93.0001C67.1214 93.1703 67.7952 92.9565 68.0001 93.0001L71.0001 94.0001C71.1503 94.0325 70.8909 93.8926 71.0001 94.0001C71.1093 94.1077 71.966 94.851 72.0001 95.0001C72.1079 95.4384 71.8516 95.5671 72.0001 96.0001C72.2732 96.7964 72.5896 97.2646 73.0001 98.0001C73.0827 98.1459 73.0157 98.8335 73.0001 99.0001C72.9845 99.1667 73.1083 98.8721 73.0001 99.0001L71.0001 102C70.8694 102.154 70.9914 101.799 71.0001 102C71.0088 102.202 70.8566 102.858 71.0001 103L73.0001 105C73.3043 105.299 74.667 105.268 75.0001 105L77.0001 103C77.1337 102.892 76.8281 103.01 77.0001 103C77.1721 102.991 77.8554 102.907 78.0001 103C79.2544 103.79 80.5638 104.628 82.0001 105C82.1775 105.047 81.8898 104.854 82.0001 105C82.1104 105.146 83.0041 105.817 83.0001 106V109C82.9961 109.206 82.865 108.845 83.0001 109C83.1352 109.156 82.7952 109.975 83.0001 110H87.0001C87.1986 110.025 86.8367 110.115 87.0001 110C87.1635 109.885 87.9578 109.195 88.0001 109V106C88.0328 105.849 88.8919 105.112 89.0001 105C89.1083 104.889 88.8491 105.038 89.0001 105C89.383 104.904 89.6267 105.128 90.0001 105C90.6983 104.763 91.3461 104.34 92.0001 104C92.2905 103.846 92.7501 103.786 93.0001 104L96.0001 106C96.1575 106.131 96.7949 107.009 97.0001 107C97.2052 106.991 96.8548 106.145 97.0001 106L100 104C100.126 103.872 99.9776 103.179 100 103C100.023 102.822 100.091 103.156 100 103C99.9808 102.969 100.028 103.029 100 103L98.0001 100C97.7925 99.746 96.8456 99.2882 97.0001 99.0001C97.0126 98.9747 97.9826 99.0235 98.0001 99.0001C98.048 98.9283 97.9582 99.0784 98.0001 99.0001C98.5493 98.1428 98.6466 96.9542 99.0001 96.0001C99.1129 95.6794 99.6537 95.9898 100 96.0001H103C103.425 96.0095 103.947 95.4207 104 95.0001V94.0001V92.0001C104.057 91.5788 103.418 91.0932 103 91.0001L100 90.0001C99.6719 89.9327 100.049 89.3302 100 89.0001C99.8712 88.1159 99.2909 87.8454 99.0001 87.0001C98.7825 86.3671 98.3052 85.5962 98.0001 85.0001L99.0001 84.0001L101 82.0001C101.108 81.8748 100.986 82.1646 101 82.0001C101.015 81.8357 101.084 81.1422 101 81.0001C100.966 80.9389 101.052 81.0504 101 81.0001L98.0001 79.0001C97.7019 78.7079 97.3251 78.7439 97.0001 79.0001L95.0001 80.0001C94.7136 80.2301 94.2941 80.2203 94.0001 80.0001C92.7844 79.0879 91.4407 78.4901 90.0001 78.0001C89.6597 77.8853 89.9868 77.3468 90.0001 77.0001V73.0001C90.0029 72.807 90.1271 73.1462 90.0001 73.0001C89.8731 72.8541 89.1925 73.0251 89.0001 73.0001L85.0001 72.0001C84.5816 71.9462 85.0842 72.5951 85.0001 73.0001L84.0001 77.0001C83.9324 77.3269 83.3329 76.9428 83.0001 77.0001C82.2901 77.1223 81.708 77.759 81.0001 78.0001C80.6226 78.1284 80.3656 77.8412 80.0001 78.0001C79.8605 78.0602 79.1507 78.0213 79.0001 78.0001C78.8495 77.979 79.1175 78.0964 79.0001 78.0001L76.0001 76.0001C75.8416 75.8658 76.2081 75.9923 76.0001 76.0001C75.7921 76.008 75.1479 75.8543 75.0001 76.0001ZM78.0001 93.0001C77.3881 90.2505 78.433 87.5513 80.0001 86.0001C85.5034 80.5722 93.7067 84.428 93.0001 92.0001C92.7951 93.9363 92.0198 96.6134 90.0001 98.0001C85.2903 101.198 79.1736 98.2546 78.0001 93.0001Z" fill="#666AF6"/>
<path d="M131 80.0001V84.0001C131.005 84.2094 130.858 84.8472 131 85.0001C131.142 85.153 131.793 84.9814 132 85.0001H135C135.049 85.0046 134.955 84.9878 135 85.0001C135.316 85.0885 135.956 85.6663 136 86.0001C136.287 87.9605 136.981 89.3058 138 91.0001C138.042 91.071 137.98 91.9248 138 92.0001C138.037 92.1446 138.039 91.8561 138 92.0001C137.962 92.1441 137.104 91.8937 137 92.0001L136 94.0001C135.89 94.1134 135.036 94.8456 135 95.0001C134.964 95.1546 134.951 94.8493 135 95.0001C135.032 95.0903 135.936 94.9183 136 95.0001L138 98.0001C138.136 98.17 137.786 97.9677 138 98.0001C138.214 98.0325 138.821 98.1223 139 98.0001L142 96.0001C142.132 95.911 141.842 96.0041 142 96.0001C142.159 95.9961 142.864 95.9177 143 96.0001C144.158 96.6878 144.701 97.6529 146 98.0001C146.168 98.0437 146.887 97.8675 147 98.0001C147.113 98.1327 146.982 98.8261 147 99.0001V102C147.041 102.43 147.565 103.01 148 103H152C152.441 102.988 152.96 102.444 153 102V99.0001C153.015 98.8214 152.884 98.1358 153 98.0001C153.116 97.8644 153.827 98.0409 154 98.0001C155.49 97.6319 156.692 96.8078 158 96.0001C158.163 95.9013 158.812 95.9767 159 96.0001C159.188 96.0235 158.866 95.8645 159 96.0001L161 98.0001C161.151 98.1522 161.787 98.9887 162 99.0001C162.213 99.0115 161.834 99.1352 162 99.0001L165 96.0001C165.161 95.8696 164.969 96.206 165 96.0001C165.031 95.7942 165.115 95.1732 165 95.0001L163 92.0001C162.911 91.8654 163.006 91.1622 163 91.0001C162.994 90.838 162.92 91.141 163 91.0001C163.582 89.976 164.669 89.132 165 88.0001C165.093 87.6699 164.661 87.032 165 87.0001H169C169.211 86.9772 169.86 86.1605 170 86.0001C170.141 85.8398 170.004 86.214 170 86.0001V82.0001C169.995 81.8122 170.117 82.1464 170 82.0001C169.883 81.8539 169.181 81.0449 169 81.0001C168.962 80.9915 169.041 81.0012 169 81.0001H165C164.661 80.9713 165.104 80.3245 165 80.0001C164.99 79.9719 165.005 80.0304 165 80.0001C164.981 79.9115 165.029 80.0882 165 80.0001C164.754 78.9669 164.459 77.9568 164 77.0001C163.842 76.6825 163.744 76.2532 164 76.0001L166 74.0001C166.311 73.6887 166.276 73.3447 166 73.0001V72.0001L164 70.0001C163.726 69.6516 163.369 69.7538 163 70.0001L160 72.0001C159.714 72.197 159.282 72.203 159 72.0001C157.681 71.0468 156.552 69.478 155 69.0001L154 66.0001C153.984 65.8284 154.113 65.1302 154 65.0001C153.888 64.8701 154.167 65.0399 154 65.0001C153.929 64.982 153.073 64.9969 153 65.0001H150C149.568 65.0116 149.042 65.5714 149 66.0001V68.0001C148.966 68.3813 148.376 68.9387 148 69.0001C146.447 69.2502 144.399 69.275 143 70.0001C142.67 70.1719 142.249 70.2618 142 70.0001L140 68.0001C139.858 67.858 139.2 67.0107 139 67.0001C138.8 66.9895 139.157 67.8739 139 68.0001L136 70.0001C135.66 70.2741 135.758 70.6433 136 71.0001L138 74.0001C138.195 74.2885 138.196 74.7089 138 75.0001C137.582 75.6213 137.328 76.2943 137 77.0001C136.825 77.3762 136.143 77.6107 136 78.0001C135.945 78.1484 136.124 78.9026 136 79.0001C135.876 79.0977 136.156 78.9819 136 79.0001H132C131.786 79.0225 131.143 79.8384 131 80.0001C130.998 79.7836 130.857 80.1618 131 80.0001ZM146 90.0001C145.164 89.4854 144.703 88.8727 144 88.0001C143.849 87.8168 143.143 88.2409 143 88.0001C142.396 86.9547 142.016 85.0539 142 84.0001C141.893 75.9385 151.852 72.9808 157 79.0001C157.083 79.1 156.918 78.8961 157 79.0001C157.767 79.9635 157.971 81.767 158 83.0001C158.015 83.6197 158.099 84.3885 158 85.0001C157.011 90.8506 150.766 92.9294 146 90.0001Z" fill="url(#paint2_linear)"/>
<path d="M0.999974 83V86C0.990863 86.1814 0.885952 86.8584 0.999974 87C1.114 87.1417 1.82033 86.9695 1.99997 87H3.99997C4.04241 87.0072 3.96116 86.9863 3.99997 87C4.26987 87.0975 4.98264 87.7084 4.99997 88C5.12853 89.7153 5.21694 91.4671 5.99997 93C6.0318 93.064 5.98678 92.9335 5.99997 93C6.02298 93.127 6.04244 93.8781 5.99997 94C5.9575 94.1219 6.09699 93.9145 5.99997 94L3.99997 95C3.89677 95.0911 4.04081 95.8688 3.99997 96C3.95914 96.1312 3.9666 95.8667 3.99997 96C4.02275 96.0799 3.949 95.925 3.99997 96L5.99997 99C6.10703 99.1559 6.8153 98.9576 6.99997 99C7.18465 99.0425 6.83522 99.0934 6.99997 99L9.99997 98C10.1207 97.9318 9.86138 97.9928 9.99997 98C10.1386 98.0072 9.88705 97.9196 9.99997 98C10.9654 98.6719 12.8886 98.6121 14 99C14.144 99.0493 13.9096 99.8779 14 100C14.0904 100.122 13.9952 99.8483 14 100V103C14.0053 103.183 13.8721 103.869 14 104C14.1278 104.131 14.8168 103.99 15 104H18C18.1865 104.01 18.8545 104.117 19 104C19.1455 103.883 18.9696 103.184 19 103V101C19.0238 100.847 18.89 100.11 19 100C19.1099 99.8904 19.8463 100.024 20 100C21.3211 99.7819 22.8093 99.6108 24 99C24.3043 98.8479 24.7754 98.7386 25 99L26 101C26.1211 101.141 26.8149 100.976 27 101C27.185 101.024 26.8464 101.106 27 101L30 99C30.1487 98.8972 29.9599 99.1759 30 99C30.04 98.8241 30.0896 98.1567 30 98L28 95C27.9301 94.8779 27.9949 95.1405 28 95C28.005 94.8596 28.9216 94.1169 29 94C29.5712 93.153 29.6417 92.956 30 92C30.0483 91.8637 29.8825 91.0848 30 91C30.1175 90.9153 30.855 91.0032 31 91H34C34.1854 90.9944 34.8673 91.1293 35 91C35.1326 90.8707 34.9903 90.1846 35 90V87C35.0071 86.8372 35.0929 87.1342 35 87C34.9071 86.8658 34.1553 86.0512 34 86C33.9674 85.99 34.0359 86.0034 34 86H31C30.8565 85.9777 31.1072 86.0977 31 86C30.8928 85.9024 31.0351 85.1404 31 85C30.993 84.9747 31.0018 85.0266 31 85C30.9886 84.9221 31.0194 85.0779 31 85C30.8494 84.0898 30.3406 82.8578 30 82C29.8815 81.7148 29.7606 82.2017 30 82L32 80C32.2903 79.7514 32.2191 79.3167 32 79V78L30 76C29.895 75.8464 30.1816 76.0422 30 76C29.8183 75.9578 29.1623 75.9085 29 76L27 77C26.7381 77.1511 26.2326 77.1942 26 77C25.3778 76.4791 24.7078 76.3978 24 76C23.4706 75.7021 22.5662 75.2206 22 75V74V72C21.9963 71.8504 22.0899 71.1199 22 71C21.91 70.8801 22.143 71.0459 22 71C21.9395 70.9797 22.0637 71.0023 22 71H18C17.623 70.9809 18.0631 71.6321 18 72L17 74C16.9467 74.3277 17.3317 73.9724 17 74C15.6308 74.1119 14.2652 74.4668 13 75C12.7016 75.1261 12.2008 75.2429 12 75L9.99997 73C9.88537 72.8677 9.17389 72.0227 8.99997 72C8.82606 71.9774 9.14484 71.9015 8.99997 72L5.99997 74C5.84904 74.1024 6.04072 74.8227 5.99997 75C5.95923 75.1774 5.90877 74.8424 5.99997 75L7.99997 78C8.07404 78.1281 8.01114 78.8526 7.99997 79C7.9888 79.1474 8.0925 78.8845 7.99997 79C7.59103 79.5196 6.32115 80.4224 5.99997 81C5.82404 81.3134 6.14908 81.6731 5.99997 82C5.94277 82.1244 6.11409 81.9239 5.99997 82C5.88586 82.0761 5.13717 81.9948 4.99997 82H1.99997C1.8122 82.0051 1.13477 81.8697 0.999974 82C0.865174 82.1304 1.01073 82.8131 0.999974 83ZM14 93C13.3031 92.4985 12.5581 91.8017 12 91C11.8794 90.8314 11.1097 90.2179 11 90C10.5386 89.0555 10.9482 87.9123 11 87C11.4088 80.0226 19.8866 77.4498 24 83C24.0662 83.0921 23.9353 82.9046 24 83C24.6083 83.8844 25.051 85.9317 25 87C24.9743 87.5364 25.1247 88.4776 25 89C23.7737 93.992 17.9728 95.8529 14 93Z" fill="url(#paint3_linear)"/>
<path d="M13 52C11.6193 52 11 52.8954 11 54C11 55.1046 11.6193 56 13 56C14.3807 56 16 55.1046 16 54C16 52.8954 14.3807 52 13 52Z" fill="#ADB5B8"/>
<path d="M163 46C161.895 46 161 46.6193 161 48C161 49.3807 161.895 51 163 51C164.105 51 165 49.3807 165 48C165 46.6193 164.105 46 163 46Z" fill="#E1E4E5"/>
<path d="M52 85C50.6193 85 49 86.6193 49 88C49 89.3807 50.6193 90 52 90C53.3807 90 54 89.3807 54 88C54 86.6193 53.3807 85 52 85Z" fill="#ADB5B8"/>
<path d="M72.9074 20.5549C71.2322 21.5194 68.4053 20.7619 67.4368 19.089C66.4683 17.4162 67.725 15.4614 69.4001 14.4969C71.0753 13.5324 72.5346 13.9234 73.5031 15.5963C74.4716 17.2692 74.5826 19.5904 72.9074 20.5549Z" fill="#E1E4E5"/>
<path d="M117 89C118.657 89 120 87.6569 120 86C120 84.3431 118.657 83 117 83C115.343 83 114 84.3431 114 86C114 87.6569 115.343 89 117 89Z" fill="#666AF6"/>
<defs>
<linearGradient id="paint0_linear" x1="107.364" y1="117.596" x2="90.9171" y2="-50.3837" gradientUnits="userSpaceOnUse">
<stop stop-color="white"/>
<stop offset="1" stop-color="#EEEEEE"/>
</linearGradient>
<linearGradient id="paint1_linear" x1="106.567" y1="-10.2603" x2="34.6103" y2="88.1268" gradientUnits="userSpaceOnUse">
<stop stop-color="#C0C0C0"/>
<stop offset="1" stop-color="#EEEEEE"/>
</linearGradient>
<linearGradient id="paint2_linear" x1="128.186" y1="48.3539" x2="182.928" y2="135.501" gradientUnits="userSpaceOnUse">
<stop stop-color="#B3B3B3"/>
<stop offset="1" stop-color="#EEEEEE"/>
</linearGradient>
<linearGradient id="paint3_linear" x1="0.71068" y1="55.0307" x2="42.5525" y2="134.676" gradientUnits="userSpaceOnUse">
<stop stop-color="#AEAEAE"/>
<stop offset="1" stop-color="#EEEEEE"/>
</linearGradient>
</defs>
</svg>
